<svg width="75" height="75" viewBox="0 0 75 75" fill="none" xmlns="http://www.w3.org/2000/svg">
<g clip-path="url(#clip0_2_60)">
<path d="M41.25 33.75V18.75H33.75V33.75H18.75V41.25H33.75V56.25H41.25V41.25H56.25V33.75H41.25ZM37.5 75C27.5544 75 18.0161 71.0491 10.9835 64.0165C3.95088 56.9839 0 47.4456 0 37.5C0 27.5544 3.95088 18.0161 10.9835 10.9835C18.0161 3.95088 27.5544 0 37.5 0C47.4456 0 56.9839 3.95088 64.0165 10.9835C71.0491 18.0161 75 27.5544 75 37.5C75 47.4456 71.0491 56.9839 64.0165 64.0165C56.9839 71.0491 47.4456 75 37.5 75Z" fill="#e9f0f2"/>
</g>
<defs>
<clipPath id="clip0_2_60">
<rect width="75" height="75" fill="white"/>
</clipPath>
</defs>
</svg>
