<svg width="75" height="75" viewBox="0 0 75 75" fill="none" xmlns="http://www.w3.org/2000/svg">
<path d="M45.5963 11.1525C45.8362 11.0798 46.0591 10.9597 46.2518 10.7993C46.4445 10.6389 46.6031 10.4415 46.7182 10.2188C46.8333 9.99605 46.9025 9.7525 46.9218 9.50253C46.9411 9.25257 46.9101 9.00126 46.8306 8.76349C46.7511 8.52572 46.6247 8.30631 46.4589 8.11824C46.2931 7.93017 46.0913 7.77725 45.8654 7.66854C45.6395 7.55983 45.3941 7.49753 45.1437 7.48533C44.8932 7.47313 44.6429 7.51127 44.4075 7.5975C40.89 8.7675 38.7 11.655 37.41 14.7488C37.2368 15.1669 37.078 15.5909 36.9338 16.02C36.2313 14.6893 35.3324 13.4719 34.2675 12.4088C32.8261 10.9643 31.1045 9.8299 29.2085 9.07537C27.3125 8.32085 25.2823 7.96212 23.2425 8.02125C21.0675 8.08125 19.3313 9.82125 19.2713 11.9925C19.2121 14.0323 19.5709 16.0625 20.3254 17.9585C21.0799 19.8545 22.2143 21.5761 23.6588 23.0175L23.775 23.13C20.625 23.8123 17.7783 25.4907 15.6563 27.9166C13.5343 30.3426 12.2497 33.3872 11.9925 36.6L11.97 36.8775C11.4749 43.0545 12.7911 49.2418 15.7575 54.6825L17.1075 57.15C17.145 57.2137 17.1825 57.2775 17.2275 57.3375L20.9775 62.595C21.8274 63.7853 22.9265 64.7761 24.1981 65.4986C25.4698 66.221 26.8836 66.6578 28.3412 66.7784C29.7988 66.899 31.2652 66.7007 32.6384 66.1971C34.0115 65.6935 35.2585 64.8969 36.2925 63.8625C36.4513 63.7036 36.6398 63.5776 36.8473 63.4917C37.0549 63.4057 37.2773 63.3614 37.5019 63.3614C37.7265 63.3614 37.9489 63.4057 38.1564 63.4917C38.3639 63.5776 38.5525 63.7036 38.7113 63.8625C39.7453 64.8969 40.9923 65.6935 42.3654 66.1971C43.7386 66.7007 45.2049 66.899 46.6625 66.7784C48.1201 66.6578 49.5339 66.221 50.8056 65.4986C52.0773 64.7761 53.1763 63.7853 54.0263 62.595L57.7763 57.3413C57.82 57.2799 57.8601 57.2161 57.8963 57.15L59.2425 54.6825C62.2089 49.2418 63.5251 43.0545 63.03 36.8775L63.0113 36.6C62.8453 34.5292 62.251 32.5154 61.266 30.6863C60.281 28.8572 58.9268 27.2527 57.2893 25.9743C55.6517 24.696 53.7664 23.7718 51.7529 23.2602C49.7395 22.7486 47.6417 22.6609 45.5925 23.0025L39.3788 24.0375C39.4163 21.4838 39.8663 18.6112 40.875 16.1887C41.925 13.6575 43.485 11.8575 45.5925 11.1525H45.5963ZM25.9088 33.6525C25.333 33.8345 24.7991 34.1287 24.3376 34.5181C23.8761 34.9075 23.4963 35.3844 23.22 35.9213C22.5263 37.2263 22.05 39.3787 22.4888 42.8925C22.538 43.3796 22.3947 43.8667 22.0896 44.2495C21.7844 44.6324 21.3416 44.8808 20.8558 44.9415C20.37 45.0022 19.8797 44.8705 19.4897 44.5745C19.0997 44.2785 18.841 43.8417 18.7688 43.3575C18.27 39.3675 18.7313 36.3638 19.9125 34.155C21.1125 31.905 22.9388 30.69 24.7238 30.0937C24.9574 30.0159 25.2041 29.9849 25.4498 30.0025C25.6955 30.02 25.9353 30.0857 26.1555 30.196C26.3758 30.3062 26.5721 30.4587 26.7334 30.6448C26.8948 30.8309 27.0178 31.047 27.0956 31.2806C27.1734 31.5143 27.2045 31.761 27.1869 32.0067C27.1694 32.2523 27.1036 32.4921 26.9934 32.7124C26.8832 32.9326 26.7307 33.129 26.5446 33.2903C26.3585 33.4516 26.1424 33.5747 25.9088 33.6525Z" fill="#e9f0f2"/>
</svg>
