<svg width="75" height="75" viewBox="0 0 75 75" fill="none" xmlns="http://www.w3.org/2000/svg">
<path d="M25.7812 4.6875C32.2559 4.6875 37.5 9.93164 37.5 16.4062V18.75C37.5 20.0391 36.4453 21.0938 35.1562 21.0938C28.6816 21.0938 23.4375 15.8496 23.4375 9.375V7.03125C23.4375 5.74219 24.4922 4.6875 25.7812 4.6875ZM8.20312 9.375H15.2344C17.1826 9.375 18.75 10.9424 18.75 12.8906C18.75 14.8389 17.1826 16.4062 15.2344 16.4062H8.20312C6.25488 16.4062 4.6875 14.8389 4.6875 12.8906C4.6875 10.9424 6.25488 9.375 8.20312 9.375ZM3.51562 19.9219H19.9219C21.8701 19.9219 23.4375 21.4893 23.4375 23.4375C23.4375 25.3857 21.8701 26.9531 19.9219 26.9531H3.51562C1.56738 26.9531 0 25.3857 0 23.4375C0 21.4893 1.56738 19.9219 3.51562 19.9219ZM4.6875 33.9844C4.6875 32.0361 6.25488 30.4688 8.20312 30.4688H15.2344C17.1826 30.4688 18.75 32.0361 18.75 33.9844C18.75 35.9326 17.1826 37.5 15.2344 37.5H8.20312C6.25488 37.5 4.6875 35.9326 4.6875 33.9844ZM39.8438 7.03125C39.8438 5.74219 40.8984 4.6875 42.1875 4.6875C48.6621 4.6875 53.9062 9.93164 53.9062 16.4062V18.75C53.9062 20.0391 52.8516 21.0938 51.5625 21.0938C45.0879 21.0938 39.8438 15.8496 39.8438 9.375V7.03125ZM58.5938 4.6875C65.0684 4.6875 70.3125 9.93164 70.3125 16.4062V18.75C70.3125 20.0391 69.2578 21.0938 67.9688 21.0938C61.4941 21.0938 56.25 15.8496 56.25 9.375V7.03125C56.25 5.74219 57.3047 4.6875 58.5938 4.6875ZM70.3125 28.125V30.4688C70.3125 36.9434 65.0684 42.1875 58.5938 42.1875C57.3047 42.1875 56.25 41.1328 56.25 39.8438V37.5C56.25 31.0254 61.4941 25.7812 67.9688 25.7812C69.2578 25.7812 70.3125 26.8359 70.3125 28.125ZM51.5625 25.7812C52.8516 25.7812 53.9062 26.8359 53.9062 28.125V30.4688C53.9062 36.9434 48.6621 42.1875 42.1875 42.1875C40.8984 42.1875 39.8438 41.1328 39.8438 39.8438V37.5C39.8438 31.0254 45.0879 25.7812 51.5625 25.7812ZM37.5 28.125V30.4688C37.5 36.9434 32.2559 42.1875 25.7812 42.1875C24.4922 42.1875 23.4375 41.1328 23.4375 39.8438V37.5C23.4375 31.0254 28.6816 25.7812 35.1562 25.7812C36.4453 25.7812 37.5 26.8359 37.5 28.125ZM0.512695 50.918C0.234375 48.7646 1.9043 46.875 4.07227 46.875H70.9277C73.0957 46.875 74.7656 48.7646 74.502 50.918C73.5791 58.2715 67.998 64.0137 60.9375 65.332V65.625C60.9375 68.2178 58.8428 70.3125 56.25 70.3125H18.75C16.1572 70.3125 14.0625 68.2178 14.0625 65.625V65.332C7.00195 64.0137 1.4209 58.2715 0.512695 50.918Z" fill="#e9f0f2"/>
</svg>
