<svg width="75" height="75" viewBox="0 0 75 75" fill="none" xmlns="http://www.w3.org/2000/svg">
<path d="M66.4688 34.0625C62.6875 33.0313 59.25 29.5 59.3125 25.0313C59.3437 23.2813 58.0625 21.8438 56.3125 21.875C49.4688 21.9688 43.75 16.3125 43.75 9.4375C43.75 7.90625 42.6562 6.625 41.125 6.4375C20.4062 3.8125 6.25 21.2813 6.25 37.5C6.25 54.75 20.25 68.75 37.5 68.75C55.0313 68.75 69.0937 54.3125 68.75 36.9375C68.7354 36.2751 68.5045 35.6356 68.0927 35.1165C67.6808 34.5975 67.1105 34.2273 66.4688 34.0625ZM26.5625 46.875C23.9688 46.875 21.875 44.7813 21.875 42.1875C21.875 39.5938 23.9688 37.5 26.5625 37.5C29.1562 37.5 31.25 39.5938 31.25 42.1875C31.25 44.7813 29.1562 46.875 26.5625 46.875ZM32.8125 31.25C30.2188 31.25 28.125 29.1563 28.125 26.5625C28.125 23.9688 30.2188 21.875 32.8125 21.875C35.4062 21.875 37.5 23.9688 37.5 26.5625C37.5 29.1563 35.4062 31.25 32.8125 31.25ZM46.875 50C45.1562 50 43.75 48.5938 43.75 46.875C43.75 45.1563 45.1562 43.75 46.875 43.75C48.5938 43.75 50 45.1563 50 46.875C50 48.5938 48.5938 50 46.875 50Z" fill="#19231C"/>
</svg>
