<svg width="75" height="75" viewBox="0 0 75 75" fill="none" xmlns="http://www.w3.org/2000/svg">
<path d="M37.5 7.03125C20.7 7.03125 7.03125 20.7 7.03125 37.5C7.03125 54.3 20.7 67.9688 37.5 67.9688C54.3 67.9688 67.9688 54.3 67.9688 37.5C67.9688 20.7 54.3 7.03125 37.5 7.03125ZM37.5 11.7188C51.7148 11.7188 63.2812 23.2852 63.2812 37.5C63.2812 51.7148 51.7148 63.2812 37.5 63.2812C23.2852 63.2812 11.7188 51.7148 11.7188 37.5C11.7188 23.2852 23.2852 11.7188 37.5 11.7188ZM32.8125 21.0938C32.1909 21.0938 31.5948 21.3407 31.1552 21.7802C30.7157 22.2198 30.4688 22.8159 30.4688 23.4375C30.4688 24.0591 30.7157 24.6552 31.1552 25.0948C31.5948 25.5343 32.1909 25.7812 32.8125 25.7812C33.4341 25.7812 34.0302 25.5343 34.4698 25.0948C34.9093 24.6552 35.1562 24.0591 35.1562 23.4375C35.1562 22.8159 34.9093 22.2198 34.4698 21.7802C34.0302 21.3407 33.4341 21.0938 32.8125 21.0938ZM45.7031 23.4375C44.7707 23.4375 43.8765 23.8079 43.2172 24.4672C42.5579 25.1265 42.1875 26.0207 42.1875 26.9531C42.1875 27.8855 42.5579 28.7797 43.2172 29.439C43.8765 30.0984 44.7707 30.4688 45.7031 30.4688C46.6355 30.4687 47.5297 30.0984 48.189 29.439C48.8484 28.7797 49.2188 27.8855 49.2188 26.9531C49.2188 26.0207 48.8484 25.1265 48.189 24.4672C47.5297 23.8079 46.6355 23.4375 45.7031 23.4375ZM25.7812 30.4688C24.538 30.4688 23.3458 30.9626 22.4667 31.8417C21.5876 32.7208 21.0938 33.913 21.0938 35.1562C21.0938 36.3995 21.5876 37.5917 22.4667 38.4708C23.3458 39.3499 24.538 39.8438 25.7812 39.8438C27.0245 39.8438 28.2167 39.3499 29.0958 38.4708C29.9749 37.5917 30.4688 36.3995 30.4688 35.1562C30.4688 33.913 29.9749 32.7208 29.0958 31.8417C28.2167 30.9626 27.0245 30.4688 25.7812 30.4688ZM39.8438 35.1562C39.2221 35.1562 38.626 35.4032 38.1865 35.8427C37.7469 36.2823 37.5 36.8784 37.5 37.5C37.5 38.1216 37.7469 38.7177 38.1865 39.1573C38.626 39.5968 39.2221 39.8438 39.8438 39.8438C40.4654 39.8438 41.0615 39.5968 41.501 39.1573C41.9406 38.7177 42.1875 38.1216 42.1875 37.5C42.1875 36.8784 41.9406 36.2823 41.501 35.8427C41.0615 35.4032 40.4654 35.1562 39.8438 35.1562ZM51.5625 37.5C50.9409 37.5 50.3448 37.7469 49.9052 38.1865C49.4657 38.626 49.2188 39.2221 49.2188 39.8438C49.2188 40.4654 49.4657 41.0615 49.9052 41.501C50.3448 41.9406 50.9409 42.1875 51.5625 42.1875C52.1841 42.1875 52.7802 41.9406 53.2198 41.501C53.6593 41.0615 53.9062 40.4654 53.9062 39.8438C53.9062 39.2221 53.6593 38.626 53.2198 38.1865C52.7802 37.7469 52.1841 37.5 51.5625 37.5ZM29.2969 44.5312C28.3645 44.5312 27.4703 44.9016 26.811 45.561C26.1516 46.2203 25.7813 47.1145 25.7812 48.0469C25.7813 48.9793 26.1516 49.8735 26.811 50.5328C27.4703 51.1921 28.3645 51.5625 29.2969 51.5625C30.2293 51.5625 31.1235 51.1921 31.7828 50.5328C32.4421 49.8735 32.8125 48.9793 32.8125 48.0469C32.8125 47.1145 32.4421 46.2203 31.7828 45.561C31.1235 44.9016 30.2293 44.5312 29.2969 44.5312ZM45.7031 46.875C44.7707 46.875 43.8765 47.2454 43.2172 47.9047C42.5579 48.564 42.1875 49.4582 42.1875 50.3906C42.1875 51.323 42.5579 52.2172 43.2172 52.8765C43.8765 53.5359 44.7707 53.9062 45.7031 53.9062C46.6355 53.9062 47.5297 53.5359 48.189 52.8765C48.8484 52.2172 49.2188 51.323 49.2188 50.3906C49.2188 49.4582 48.8484 48.564 48.189 47.9047C47.5297 47.2454 46.6355 46.875 45.7031 46.875Z" fill="#19231C"/>
</svg>
