    <svg
     width="32"
     height="32"
     viewBox="0 0 32 32"
     fill="none"
     xmlns="http://www.w3.org/2000/svg"
    >
            <g clip-path="url(#clip0_14_171)">
              <path
                d="M15.9999 29.2857C23.3356 29.2857 29.2856 23.3357 29.2856 16C29.2856 8.66428 23.3356 2.71428 15.9999 2.71428C8.66422 2.71428 2.71421 8.66428 2.71421 16C2.71421 23.3357 8.66422 29.2857 15.9999 29.2857ZM9.64279 12.1786H11.3178C11.6821 12.1786 12.0285 12.3536 12.2428 12.65L15.9999 17.8428L19.7571 12.65C19.9714 12.3536 20.3142 12.1786 20.6821 12.1786H22.3571C22.5892 12.1786 22.7249 12.4428 22.5892 12.6321L16.2321 21.4178C16.1178 21.575 15.8856 21.575 15.7714 21.4178L9.41422 12.6321C9.27493 12.4428 9.41064 12.1786 9.64279 12.1786Z"
                fill="#e9f0f2"
              />
              <path
                d="M16 32C24.8357 32 32 24.8357 32 16C32 7.16429 24.8357 0 16 0C7.16429 0 0 7.16429 0 16C0 24.8357 7.16429 32 16 32ZM16 2.71428C23.3357 2.71428 29.2857 8.66429 29.2857 16C29.2857 23.3357 23.3357 29.2857 16 29.2857C8.66429 29.2857 2.71428 23.3357 2.71428 16C2.71428 8.66429 8.66429 2.71428 16 2.71428Z"
                fill="#5a5a5a"
              />
              <path
                d="M15.7712 21.4179C15.7975 21.4544 15.8321 21.4841 15.8721 21.5046C15.9122 21.5251 15.9565 21.5358 16.0015 21.5358C16.0465 21.5358 16.0909 21.5251 16.1309 21.5046C16.171 21.4841 16.2056 21.4544 16.2319 21.4179L22.589 12.6322C22.7248 12.4429 22.589 12.1786 22.3569 12.1786H20.6819C20.314 12.1786 19.9712 12.3536 19.7569 12.65L15.9998 17.8429L12.2426 12.65C12.0283 12.3536 11.6819 12.1786 11.3176 12.1786H9.64261C9.41047 12.1786 9.27476 12.4429 9.41404 12.6322L15.7712 21.4179Z"
                fill="#5a5a5a"
              />
            </g>
            <defs>
              <clipPath id="clip0_14_171">
                <rect
                  width="32"
                  height="32"
                  fill="white"
                  transform="matrix(-1 0 0 -1 32 32)"
                />
              </clipPath>
            </defs>
          </svg>