<svg width="270" height="100" viewBox="0 0 270 100" fill="none" xmlns="http://www.w3.org/2000/svg">
<path d="M151.667 50C151.667 45.4167 155.417 41.6667 160 41.6667C164.583 41.6667 168.333 45.4167 168.333 50C168.333 54.5833 164.583 58.3333 160 58.3333C155.417 58.3333 151.667 54.5833 151.667 50ZM126.667 50C126.667 45.4167 130.417 41.6667 135 41.6667C139.583 41.6667 143.333 45.4167 143.333 50C143.333 54.5833 139.583 58.3333 135 58.3333C130.417 58.3333 126.667 54.5833 126.667 50ZM101.667 50C101.667 45.4167 105.417 41.6667 110 41.6667C114.583 41.6667 118.333 45.4167 118.333 50C118.333 54.5833 114.583 58.3333 110 58.3333C105.417 58.3333 101.667 54.5833 101.667 50ZM139.167 75C139.167 70.4167 142.917 66.6667 147.5 66.6667C152.083 66.6667 155.833 70.4167 155.833 75C155.833 79.5833 152.083 83.3333 147.5 83.3333C142.917 83.3333 139.167 79.5833 139.167 75ZM114.167 75C114.167 70.4167 117.917 66.6667 122.5 66.6667C127.083 66.6667 130.833 70.4167 130.833 75C130.833 79.5833 127.083 83.3333 122.5 83.3333C117.917 83.3333 114.167 79.5833 114.167 75ZM139.167 25C139.167 20.4167 142.917 16.6667 147.5 16.6667C152.083 16.6667 155.833 20.4167 155.833 25C155.833 29.5833 152.083 33.3333 147.5 33.3333C142.917 33.3333 139.167 29.5833 139.167 25ZM114.167 25C114.167 20.4167 117.917 16.6667 122.5 16.6667C127.083 16.6667 130.833 20.4167 130.833 25C130.833 29.5833 127.083 33.3333 122.5 33.3333C117.917 33.3333 114.167 29.5833 114.167 25Z" fill="#19231C"/>
<rect x="185" y="53" width="6" height="85" transform="rotate(-90 185 53)" fill="#19231C"/>
<rect y="53" width="6" height="85" transform="rotate(-90 0 53)" fill="#19231C"/>
</svg>
