<svg width="241" height="75" viewBox="0 0 241 75" fill="none" xmlns="http://www.w3.org/2000/svg">
<path d="M133 37.5C133 34.0625 135.812 31.25 139.25 31.25C142.688 31.25 145.5 34.0625 145.5 37.5C145.5 40.9375 142.688 43.75 139.25 43.75C135.812 43.75 133 40.9375 133 37.5ZM114.25 37.5C114.25 34.0625 117.062 31.25 120.5 31.25C123.938 31.25 126.75 34.0625 126.75 37.5C126.75 40.9375 123.938 43.75 120.5 43.75C117.062 43.75 114.25 40.9375 114.25 37.5ZM95.5 37.5C95.5 34.0625 98.3125 31.25 101.75 31.25C105.188 31.25 108 34.0625 108 37.5C108 40.9375 105.188 43.75 101.75 43.75C98.3125 43.75 95.5 40.9375 95.5 37.5ZM123.625 56.25C123.625 52.8125 126.437 50 129.875 50C133.313 50 136.125 52.8125 136.125 56.25C136.125 59.6875 133.313 62.5 129.875 62.5C126.437 62.5 123.625 59.6875 123.625 56.25ZM104.875 56.25C104.875 52.8125 107.687 50 111.125 50C114.563 50 117.375 52.8125 117.375 56.25C117.375 59.6875 114.563 62.5 111.125 62.5C107.687 62.5 104.875 59.6875 104.875 56.25ZM123.625 18.75C123.625 15.3125 126.437 12.5 129.875 12.5C133.313 12.5 136.125 15.3125 136.125 18.75C136.125 22.1875 133.313 25 129.875 25C126.437 25 123.625 22.1875 123.625 18.75ZM104.875 18.75C104.875 15.3125 107.687 12.5 111.125 12.5C114.563 12.5 117.375 15.3125 117.375 18.75C117.375 22.1875 114.563 25 111.125 25C107.687 25 104.875 22.1875 104.875 18.75Z" fill="#e9f0f2"/>
<rect x="166" y="41" width="6" height="75" transform="rotate(-90 166 41)" fill="#e9f0f2"/>
<rect y="41" width="6" height="75" transform="rotate(-90 0 41)" fill="#e9f0f2"/>
</svg>
