<svg width="75" height="75" viewBox="0 0 75 75" fill="none" xmlns="http://www.w3.org/2000/svg">
<g clip-path="url(#clip0_2_88)">
<path d="M67.9688 37.5C67.9687 29.4192 64.7587 21.6693 59.0447 15.9553C53.3307 10.2413 45.5808 7.03125 37.5 7.03125C29.4192 7.03125 21.6693 10.2413 15.9553 15.9553C10.2413 21.6693 7.03125 29.4192 7.03125 37.5C7.03125 45.5808 10.2413 53.3307 15.9553 59.0447C21.6693 64.7587 29.4192 67.9688 37.5 67.9688C45.5808 67.9688 53.3307 64.7587 59.0447 59.0447C64.7587 53.3307 67.9688 45.5808 67.9688 37.5ZM0 37.5C0 27.5544 3.95088 18.0161 10.9835 10.9835C18.0161 3.95088 27.5544 0 37.5 0C47.4456 0 56.9839 3.95088 64.0165 10.9835C71.0491 18.0161 75 27.5544 75 37.5C75 47.4456 71.0491 56.9839 64.0165 64.0165C56.9839 71.0491 47.4456 75 37.5 75C27.5544 75 18.0161 71.0491 10.9835 64.0165C3.95088 56.9839 0 47.4456 0 37.5ZM37.5 23.4375C41.2296 23.4375 44.8065 24.9191 47.4437 27.5563C50.0809 30.1935 51.5625 33.7704 51.5625 37.5C51.5625 41.2296 50.0809 44.8065 47.4437 47.4437C44.8065 50.0809 41.2296 51.5625 37.5 51.5625C33.7704 51.5625 30.1935 50.0809 27.5563 47.4437C24.9191 44.8065 23.4375 41.2296 23.4375 37.5C23.4375 33.7704 24.9191 30.1935 27.5563 27.5563C30.1935 24.9191 33.7704 23.4375 37.5 23.4375Z" fill="#19231C"/>
</g>
<defs>
<clipPath id="clip0_2_88">
<rect width="75" height="75" fill="white"/>
</clipPath>
</defs>
</svg>
