<svg width="75" height="75" viewBox="0 0 75 75" fill="none" xmlns="http://www.w3.org/2000/svg">
<g clip-path="url(#clip0_2_86)">
<path d="M37.5 75C47.4456 75 56.9839 71.0491 64.0165 64.0165C71.0491 56.9839 75 47.4456 75 37.5C75 27.5544 71.0491 18.0161 64.0165 10.9835C56.9839 3.95088 47.4456 0 37.5 0C27.5544 0 18.0161 3.95088 10.9835 10.9835C3.95088 18.0161 0 27.5544 0 37.5C0 47.4456 3.95088 56.9839 10.9835 64.0165C18.0161 71.0491 27.5544 75 37.5 75ZM37.5 23.4375C41.2296 23.4375 44.8065 24.9191 47.4437 27.5563C50.0809 30.1935 51.5625 33.7704 51.5625 37.5C51.5625 41.2296 50.0809 44.8065 47.4437 47.4437C44.8065 50.0809 41.2296 51.5625 37.5 51.5625C33.7704 51.5625 30.1935 50.0809 27.5563 47.4437C24.9191 44.8065 23.4375 41.2296 23.4375 37.5C23.4375 33.7704 24.9191 30.1935 27.5563 27.5563C30.1935 24.9191 33.7704 23.4375 37.5 23.4375Z" fill="#e9f0f2"/>
</g>
<defs>
<clipPath id="clip0_2_86">
<rect width="75" height="75" fill="white"/>
</clipPath>
</defs>
</svg>
