<svg width="75" height="75" viewBox="0 0 75 75" fill="none" xmlns="http://www.w3.org/2000/svg">
<g clip-path="url(#clip0_2_94)">
<path fill-rule="evenodd" clip-rule="evenodd" d="M37.5 6.25C54.7594 6.25 68.75 20.2406 68.75 37.5C68.75 54.7594 54.7594 68.75 37.5 68.75C20.2406 68.75 6.25 54.7594 6.25 37.5C6.25 20.2406 20.2406 6.25 37.5 6.25ZM37.5 48.4375C36.2568 48.4375 35.0645 48.9314 34.1854 49.8104C33.3064 50.6895 32.8125 51.8818 32.8125 53.125C32.8125 54.3682 33.3064 55.5605 34.1854 56.4396C35.0645 57.3186 36.2568 57.8125 37.5 57.8125C38.7432 57.8125 39.9355 57.3186 40.8146 56.4396C41.6936 55.5605 42.1875 54.3682 42.1875 53.125C42.1875 51.8818 41.6936 50.6895 40.8146 49.8104C39.9355 48.9314 38.7432 48.4375 37.5 48.4375ZM53.125 32.8125C51.8818 32.8125 50.6895 33.3064 49.8104 34.1854C48.9314 35.0645 48.4375 36.2568 48.4375 37.5C48.4375 38.7432 48.9314 39.9355 49.8104 40.8146C50.6895 41.6936 51.8818 42.1875 53.125 42.1875C54.3682 42.1875 55.5605 41.6936 56.4396 40.8146C57.3186 39.9355 57.8125 38.7432 57.8125 37.5C57.8125 36.2568 57.3186 35.0645 56.4396 34.1854C55.5605 33.3064 54.3682 32.8125 53.125 32.8125ZM21.875 32.8125C20.6318 32.8125 19.4395 33.3064 18.5604 34.1854C17.6814 35.0645 17.1875 36.2568 17.1875 37.5C17.1875 38.7432 17.6814 39.9355 18.5604 40.8146C19.4395 41.6936 20.6318 42.1875 21.875 42.1875C23.1182 42.1875 24.3105 41.6936 25.1896 40.8146C26.0686 39.9355 26.5625 38.7432 26.5625 37.5C26.5625 36.2568 26.0686 35.0645 25.1896 34.1854C24.3105 33.3064 23.1182 32.8125 21.875 32.8125ZM37.5 17.1875C36.8844 17.1875 36.2749 17.3087 35.7062 17.5443C35.1375 17.7799 34.6207 18.1252 34.1854 18.5604C33.7502 18.9957 33.4049 19.5125 33.1693 20.0812C32.9337 20.6499 32.8125 21.2594 32.8125 21.875C32.8125 22.4906 32.9337 23.1001 33.1693 23.6688C33.4049 24.2375 33.7502 24.7543 34.1854 25.1896C34.6207 25.6248 35.1375 25.9701 35.7062 26.2057C36.2749 26.4413 36.8844 26.5625 37.5 26.5625C38.7432 26.5625 39.9355 26.0686 40.8146 25.1896C41.6936 24.3105 42.1875 23.1182 42.1875 21.875C42.1875 20.6318 41.6936 19.4395 40.8146 18.5604C39.9355 17.6814 38.7432 17.1875 37.5 17.1875Z" fill="#19231C"/>
</g>
<defs>
<clipPath id="clip0_2_94">
<rect width="75" height="75" fill="white"/>
</clipPath>
</defs>
</svg>
