<svg width="75" height="75" viewBox="0 0 75 75" fill="none" xmlns="http://www.w3.org/2000/svg">
<g clip-path="url(#clip0_2_90)">
<path d="M37.5 6.25C54.7594 6.25 68.75 20.2406 68.75 37.5C68.75 54.7594 54.7594 68.75 37.5 68.75C20.2406 68.75 6.25 54.7594 6.25 37.5C6.25 20.2406 20.2406 6.25 37.5 6.25ZM37.5 12.5C30.8696 12.5 24.5107 15.1339 19.8223 19.8223C15.1339 24.5107 12.5 30.8696 12.5 37.5C12.5 44.1304 15.1339 50.4893 19.8223 55.1777C24.5107 59.8661 30.8696 62.5 37.5 62.5C44.1304 62.5 50.4893 59.8661 55.1777 55.1777C59.8661 50.4893 62.5 44.1304 62.5 37.5C62.5 30.8696 59.8661 24.5107 55.1777 19.8223C50.4893 15.1339 44.1304 12.5 37.5 12.5ZM37.5 48.4375C38.7432 48.4375 39.9355 48.9314 40.8146 49.8104C41.6936 50.6895 42.1875 51.8818 42.1875 53.125C42.1875 54.3682 41.6936 55.5605 40.8146 56.4396C39.9355 57.3186 38.7432 57.8125 37.5 57.8125C36.2568 57.8125 35.0645 57.3186 34.1854 56.4396C33.3064 55.5605 32.8125 54.3682 32.8125 53.125C32.8125 51.8818 33.3064 50.6895 34.1854 49.8104C35.0645 48.9314 36.2568 48.4375 37.5 48.4375ZM53.125 32.8125C54.3682 32.8125 55.5605 33.3064 56.4396 34.1854C57.3186 35.0645 57.8125 36.2568 57.8125 37.5C57.8125 38.7432 57.3186 39.9355 56.4396 40.8146C55.5605 41.6936 54.3682 42.1875 53.125 42.1875C51.8818 42.1875 50.6895 41.6936 49.8104 40.8146C48.9314 39.9355 48.4375 38.7432 48.4375 37.5C48.4375 36.2568 48.9314 35.0645 49.8104 34.1854C50.6895 33.3064 51.8818 32.8125 53.125 32.8125ZM21.875 32.8125C23.1182 32.8125 24.3105 33.3064 25.1896 34.1854C26.0686 35.0645 26.5625 36.2568 26.5625 37.5C26.5625 38.7432 26.0686 39.9355 25.1896 40.8146C24.3105 41.6936 23.1182 42.1875 21.875 42.1875C20.6318 42.1875 19.4395 41.6936 18.5604 40.8146C17.6814 39.9355 17.1875 38.7432 17.1875 37.5C17.1875 36.2568 17.6814 35.0645 18.5604 34.1854C19.4395 33.3064 20.6318 32.8125 21.875 32.8125ZM37.5 17.1875C38.1156 17.1875 38.7251 17.3087 39.2938 17.5443C39.8625 17.7799 40.3793 18.1252 40.8146 18.5604C41.2498 18.9957 41.5951 19.5125 41.8307 20.0812C42.0663 20.6499 42.1875 21.2594 42.1875 21.875C42.1875 22.4906 42.0663 23.1001 41.8307 23.6688C41.5951 24.2375 41.2498 24.7543 40.8146 25.1896C40.3793 25.6248 39.8625 25.9701 39.2938 26.2057C38.7251 26.4413 38.1156 26.5625 37.5 26.5625C36.2568 26.5625 35.0645 26.0686 34.1854 25.1896C33.3064 24.3105 32.8125 23.1182 32.8125 21.875C32.8125 20.6318 33.3064 19.4395 34.1854 18.5604C35.0645 17.6814 36.2568 17.1875 37.5 17.1875Z" fill="#e9f0f2"/>
</g>
<defs>
<clipPath id="clip0_2_90">
<rect width="75" height="75" fill="white"/>
</clipPath>
</defs>
</svg>
