<svg width="75" height="75" viewBox="0 0 75 75" fill="none" xmlns="http://www.w3.org/2000/svg">
<path d="M37.5 6.25C34.0229 6.24942 30.6274 7.30307 27.7614 9.27192C24.8954 11.2408 22.6937 14.0323 21.4469 17.2781C20.1506 16.9043 18.8365 16.5956 17.5094 16.3531C14.7801 15.859 12.0112 15.6163 9.2375 15.6281L8.7 15.6406L8.55 15.6469C7.9642 15.6703 7.40774 15.9095 6.98774 16.3185C6.56774 16.7276 6.31387 17.2775 6.275 17.8625L6.27187 17.925L6.26563 18.0781C6.24426 18.8947 6.24947 19.7118 6.28125 20.5281C6.34375 22.1312 6.51875 24.3625 6.97813 26.8844C7.39688 29.1812 8.06563 31.775 9.13438 34.375H8.59375C7.97215 34.375 7.37601 34.6219 6.93647 35.0615C6.49693 35.501 6.25 36.0971 6.25 36.7188V37.5C6.25 54.7594 20.2406 68.75 37.5 68.75C54.7594 68.75 68.75 54.7594 68.75 37.5V36.7188C68.75 36.0971 68.5031 35.501 68.0635 35.0615C67.624 34.6219 67.0279 34.375 66.4062 34.375H65.6156C65.7039 30.9261 64.6195 27.5494 62.5396 24.7968C60.4597 22.0443 57.5075 20.0788 54.1656 19.2219C53.2263 15.5134 51.077 12.2242 48.0579 9.8747C45.0388 7.52521 41.3224 6.24969 37.4969 6.25H37.5ZM25.8531 18.875C26.7681 16.5409 28.3636 14.5357 30.4325 13.1198C32.5014 11.7039 34.9482 10.9426 37.4553 10.9349C39.9623 10.9271 42.4138 11.6732 44.4914 13.0763C46.569 14.4794 48.1769 16.4747 49.1062 18.8031C46.419 19.029 43.8397 19.9637 41.6317 21.5119C39.4236 23.06 37.6658 25.1663 36.5375 27.6156C35.6947 26.3671 34.7352 25.2014 33.6719 24.1344C31.3312 21.7938 28.6094 20.1031 25.8531 18.875ZM60.9375 33.9844C60.9375 34.1156 60.9344 34.2469 60.9281 34.375H39.9L39.8438 34.2187V33.9844C39.8438 31.1872 40.9549 28.5045 42.9329 26.5266C44.9108 24.5487 47.5934 23.4375 50.3906 23.4375C53.1878 23.4375 55.8705 24.5487 57.8484 26.5266C59.8263 28.5045 60.9375 31.1872 60.9375 33.9844ZM30.3562 27.45C32.3656 29.4563 33.8219 31.8719 34.8719 34.375H28.3094L22.75 28.8125C22.5354 28.5822 22.2767 28.3975 21.9892 28.2694C21.7017 28.1413 21.3913 28.0725 21.0766 28.0669C20.7619 28.0613 20.4493 28.1192 20.1575 28.2371C19.8657 28.355 19.6006 28.5304 19.378 28.753C19.1554 28.9756 18.98 29.2407 18.8621 29.5325C18.7442 29.8243 18.6863 30.1369 18.6919 30.4516C18.6975 30.7663 18.7663 31.0767 18.8944 31.3642C19.0225 31.6517 19.2072 31.9104 19.4375 32.125L21.6875 34.375H14.2813C12.9063 31.6375 12.0813 28.7094 11.5938 26.0406C11.2519 24.1598 11.043 22.2571 10.9687 20.3469V20.3406C12.4062 20.3937 14.4125 20.5531 16.6656 20.9656C21.2281 21.8 26.5406 23.6219 30.3625 27.45H30.3562ZM14.9625 51.5625H60.0375C57.6518 55.3888 54.3308 58.5443 50.3876 60.7313C46.4444 62.9183 42.0091 64.0647 37.5 64.0625C32.9909 64.0647 28.5556 62.9183 24.6124 60.7313C20.6692 58.5443 17.3482 55.3888 14.9625 51.5625ZM10.9812 39.0625H64.0156C63.8625 41.7355 63.3041 44.3698 62.3594 46.875H12.6406C11.6962 44.3697 11.1377 41.7355 10.9844 39.0625H10.9812Z" fill="#e9f0f2"/>
</svg>
