<svg width="75" height="75" viewBox="0 0 75 75" fill="none" xmlns="http://www.w3.org/2000/svg">
<path d="M37.5 6.25C34.0229 6.24942 30.6274 7.30307 27.7614 9.27192C24.8954 11.2408 22.6937 14.0323 21.4469 17.2781C20.1506 16.9043 18.8365 16.5956 17.5094 16.3531C14.7801 15.859 12.0112 15.6163 9.2375 15.6281L8.7 15.6406L8.55 15.6469L8.4875 15.65C7.91094 15.6815 7.36628 15.9247 6.95798 16.333C6.54968 16.7413 6.30648 17.2859 6.275 17.8625L6.26563 18.0781C6.24426 18.8947 6.24947 19.7118 6.28125 20.5281C6.34375 22.1312 6.51875 24.3625 6.97813 26.8844C7.39688 29.1812 8.06563 31.775 9.13438 34.375H8.58125C7.96296 34.375 7.37 34.6206 6.93281 35.0578C6.49561 35.495 6.25 36.088 6.25 36.7063V37.5C6.25 40.7656 6.75 43.9156 7.68125 46.875H67.3187C68.2701 43.841 68.7528 40.6796 68.75 37.5V36.7063C68.75 36.088 68.5044 35.495 68.0672 35.0578C67.63 34.6206 67.037 34.375 66.4187 34.375H65.6156C65.7039 30.9261 64.6195 27.5494 62.5396 24.7968C60.4597 22.0443 57.5075 20.0788 54.1656 19.2219C53.2263 15.5134 51.077 12.2242 48.0579 9.8747C45.0388 7.52521 41.3224 6.24969 37.4969 6.25H37.5ZM37.5 10.9375C39.9996 10.9379 42.4418 11.6875 44.5112 13.0896C46.5806 14.4916 48.1822 16.4818 49.1094 18.8031C46.4221 19.029 43.8429 19.9637 41.6348 21.5119C39.4267 23.06 37.6689 25.1663 36.5406 27.6156C35.6978 26.3671 34.7383 25.2014 33.675 24.1344C31.3344 21.7938 28.6125 20.1031 25.8563 18.875C26.7742 16.5348 28.3763 14.5256 30.4534 13.1096C32.5305 11.6937 34.9862 10.9367 37.5 10.9375ZM60.9312 33.9844C60.9312 34.1156 60.9313 34.2469 60.925 34.375H39.8969L39.8406 34.2187V33.9844C39.8406 31.1872 40.9518 28.5045 42.9297 26.5266C44.9077 24.5487 47.5903 23.4375 50.3875 23.4375C53.1847 23.4375 55.8673 24.5487 57.8453 26.5266C59.8232 28.5045 60.9344 31.1872 60.9344 33.9844H60.9312ZM30.3625 27.45C32.3719 29.4563 33.8281 31.8719 34.8781 34.375H28.3156L22.75 28.8125C22.5354 28.5822 22.2767 28.3975 21.9892 28.2694C21.7017 28.1413 21.3913 28.0725 21.0766 28.0669C20.7619 28.0613 20.4493 28.1192 20.1575 28.2371C19.8657 28.355 19.6006 28.5304 19.378 28.753C19.1554 28.9756 18.98 29.2407 18.8621 29.5325C18.7442 29.8243 18.6863 30.1369 18.6919 30.4516C18.6975 30.7663 18.7663 31.0767 18.8944 31.3642C19.0225 31.6517 19.2072 31.9104 19.4375 32.125L21.6875 34.375H14.2813C12.9063 31.6375 12.0813 28.7094 11.5938 26.0406C11.2519 24.1598 11.043 22.2571 10.9687 20.3469V20.3406C12.4062 20.3937 14.4125 20.5531 16.6656 20.9656C21.2281 21.8 26.5406 23.6219 30.3625 27.45ZM9.58437 51.5625C12.1891 56.7317 16.1784 61.0759 21.1075 64.1106C26.0365 67.1454 31.7116 68.7516 37.5 68.75C43.2884 68.7516 48.9635 67.1454 53.8925 64.1106C58.8216 61.0759 62.8109 56.7317 65.4156 51.5625H9.58437Z" fill="#19231C"/>
</svg>
