<svg width="75" height="75" viewBox="0 0 75 75" fill="none" xmlns="http://www.w3.org/2000/svg">
<path d="M37.5001 3.51562C38.3058 3.51562 39.0626 3.66211 39.7706 3.95508C40.4786 4.24805 41.1012 4.67529 41.6383 5.23682C42.1754 5.79834 42.5905 6.4209 42.8834 7.10449C43.1764 7.78809 43.3351 8.54492 43.3595 9.375C43.3595 10.1807 43.213 10.9375 42.92 11.6455C42.6271 12.3535 42.1998 12.9761 41.6383 13.5132C41.0768 14.0503 40.4542 14.4653 39.7706 14.7583C39.087 15.0513 38.3302 15.21 37.5001 15.2344C36.6945 15.2344 35.9376 15.0879 35.2296 14.7949C34.5216 14.502 33.899 14.0747 33.3619 13.5132C32.8248 12.9517 32.4098 12.3291 32.1168 11.6455C31.8239 10.9619 31.6652 10.2051 31.6407 9.375C31.6407 8.56934 31.7872 7.8125 32.0802 7.10449C32.3732 6.39648 32.8004 5.77393 33.3619 5.23682C33.9235 4.69971 34.546 4.28467 35.2296 3.9917C35.9132 3.69873 36.67 3.54004 37.5001 3.51562ZM12.3414 17.6147C12.3414 16.8823 12.4757 16.1987 12.7443 15.564C13.0128 14.9292 13.379 14.3799 13.8429 13.916C14.3068 13.4521 14.8683 13.0737 15.5275 12.7808C16.1866 12.4878 16.8824 12.3413 17.6149 12.3413C18.3473 12.3413 19.0309 12.4756 19.6656 12.7441C20.3004 13.0127 20.8497 13.3911 21.3136 13.8794C21.7775 14.3677 22.1559 14.9292 22.4489 15.564C22.7418 16.1987 22.8883 16.8823 22.8883 17.6147C22.8883 18.3472 22.754 19.0308 22.4855 19.6655C22.2169 20.3003 21.8385 20.8618 21.3502 21.3501C20.8619 21.8384 20.3004 22.2168 19.6656 22.4854C19.0309 22.7539 18.3473 22.8882 17.6149 22.8882C16.8824 22.8882 16.1989 22.7539 15.5641 22.4854C14.9293 22.2168 14.3678 21.8506 13.8795 21.3867C13.3912 20.9229 13.0128 20.3613 12.7443 19.7021C12.4757 19.043 12.3414 18.3472 12.3414 17.6147ZM9.37512 32.8125C10.0343 32.8125 10.6447 32.9346 11.2062 33.1787C11.7677 33.4229 12.256 33.7524 12.671 34.1675C13.0861 34.5825 13.4279 35.083 13.6964 35.6689C13.965 36.2549 14.087 36.8652 14.0626 37.5C14.0626 38.1592 13.9406 38.7695 13.6964 39.3311C13.4523 39.8926 13.1227 40.3809 12.7076 40.7959C12.2926 41.2109 11.7921 41.5527 11.2062 41.8213C10.6202 42.0898 10.0099 42.2119 9.37512 42.1875C8.71594 42.1875 8.10559 42.0654 7.54407 41.8213C6.98254 41.5771 6.49426 41.2476 6.07922 40.8325C5.66418 40.4175 5.32239 39.917 5.05383 39.3311C4.78528 38.7451 4.66321 38.1348 4.68762 37.5C4.68762 36.8408 4.80969 36.2305 5.05383 35.6689C5.29797 35.1074 5.62756 34.6191 6.0426 34.2041C6.45764 33.7891 6.95813 33.4473 7.54407 33.1787C8.13 32.9102 8.74036 32.7881 9.37512 32.8125ZM13.5133 57.3853C13.5133 56.8237 13.6232 56.2988 13.8429 55.8105C14.0626 55.3223 14.3556 54.8828 14.7218 54.4922C15.088 54.1016 15.5153 53.8086 16.0035 53.6133C16.4918 53.418 17.0289 53.3081 17.6149 53.2837C18.1764 53.2837 18.7013 53.3936 19.1896 53.6133C19.6779 53.833 20.1173 54.126 20.5079 54.4922C20.8986 54.8584 21.1915 55.2856 21.3868 55.7739C21.5822 56.2622 21.692 56.7993 21.7164 57.3853C21.7164 57.9468 21.6066 58.4717 21.3868 58.96C21.1671 59.4482 20.8741 59.8877 20.5079 60.2783C20.1417 60.6689 19.7145 60.9619 19.2262 61.1572C18.7379 61.3525 18.2008 61.4624 17.6149 61.4868C17.0533 61.4868 16.5284 61.377 16.0402 61.1572C15.5519 60.9375 15.1124 60.6445 14.7218 60.2783C14.3312 59.9121 14.0382 59.4849 13.8429 58.9966C13.6476 58.5083 13.5377 57.9712 13.5133 57.3853ZM37.5001 62.1094C38.4767 62.1094 39.3068 62.4512 39.9904 63.1348C40.6739 63.8184 41.0157 64.6484 41.0157 65.625C41.0157 66.6016 40.6739 67.4316 39.9904 68.1152C39.3068 68.7988 38.4767 69.1406 37.5001 69.1406C36.5236 69.1406 35.6935 68.7988 35.0099 68.1152C34.3263 67.4316 33.9845 66.6016 33.9845 65.625C33.9845 64.6484 34.3263 63.8184 35.0099 63.1348C35.6935 62.4512 36.5236 62.1094 37.5001 62.1094ZM54.4557 57.3853C54.4557 56.5552 54.7365 55.8594 55.298 55.2979C55.8595 54.7363 56.5553 54.4556 57.3854 54.4556C58.2155 54.4556 58.9113 54.7363 59.4728 55.2979C60.0343 55.8594 60.3151 56.5552 60.3151 57.3853C60.3151 58.2153 60.0343 58.9111 59.4728 59.4727C58.9113 60.0342 58.2155 60.3149 57.3854 60.3149C56.5553 60.3149 55.8595 60.0342 55.298 59.4727C54.7365 58.9111 54.4557 58.2153 54.4557 57.3853ZM65.6251 35.1562C66.2599 35.1562 66.8092 35.3882 67.2731 35.8521C67.7369 36.3159 67.9689 36.8652 67.9689 37.5C67.9689 38.1348 67.7369 38.6841 67.2731 39.1479C66.8092 39.6118 66.2599 39.8438 65.6251 39.8438C64.9904 39.8438 64.441 39.6118 63.9772 39.1479C63.5133 38.6841 63.2814 38.1348 63.2814 37.5C63.2814 36.8652 63.5133 36.3159 63.9772 35.8521C64.441 35.3882 64.9904 35.1562 65.6251 35.1562ZM57.3854 11.1694C58.2643 11.1694 59.0944 11.3403 59.8756 11.6821C60.6569 12.0239 61.3405 12.4878 61.9264 13.0737C62.5123 13.6597 62.9762 14.3433 63.318 15.1245C63.6598 15.9058 63.8307 16.7358 63.8307 17.6147C63.8307 18.4937 63.6598 19.3237 63.318 20.105C62.9762 20.8862 62.5123 21.5698 61.9264 22.1558C61.3405 22.7417 60.6569 23.2056 59.8756 23.5474C59.0944 23.8892 58.2643 24.0601 57.3854 24.0601C56.5065 24.0601 55.6764 23.8892 54.8951 23.5474C54.1139 23.2056 53.4303 22.7417 52.8444 22.1558C52.2584 21.5698 51.7946 20.8862 51.4528 20.105C51.111 19.3237 50.9401 18.4937 50.9401 17.6147C50.9401 16.7358 51.111 15.9058 51.4528 15.1245C51.7946 14.3433 52.2584 13.6597 52.8444 13.0737C53.4303 12.4878 54.1139 12.0239 54.8951 11.6821C55.6764 11.3403 56.5065 11.1694 57.3854 11.1694Z" fill="#e9f0f2"/>
</svg>
