<svg width="75" height="75" viewBox="0 0 75 75" fill="none" xmlns="http://www.w3.org/2000/svg">
<path d="M58.3055 3.66094L57.2765 1.55156L55.1719 2.58281C46.1859 6.96562 42.4125 17.8102 46.8047 26.8102L46.9359 27.0797C44.7048 32.6039 40.9282 37.3676 36.0586 40.8L33.8906 36.3398C36.6779 34.8422 38.7778 32.3245 39.7507 29.3136C40.7236 26.3027 40.4941 23.0322 39.1101 20.1867L33.8437 9.36094L31.7367 10.3852C28.8158 11.8068 26.5793 14.3305 25.5191 17.4011C24.4589 20.4717 24.662 23.8377 26.0836 26.7586L29.6859 34.1648C29.707 34.2258 29.7328 34.2867 29.7609 34.3453L33.7219 42.4922C28.6681 46.4801 24.8619 51.8316 22.7531 57.9141L22.1531 59.6484L19.8937 55.0008C23.3359 53.181 25.9369 50.0956 27.1481 46.3951C28.3592 42.6947 28.086 38.6685 26.3859 35.1656L19.9172 21.8953L17.8078 22.9266C10.3734 26.5594 7.25623 35.5289 10.8961 42.982L16.2492 53.9625C16.2726 54.0352 16.3008 54.1078 16.3359 54.1781L20.8406 63.4453L18.7922 69.375L21.464 70.2891L23.8242 63.4758L32.7304 64.4039C32.7873 64.4088 32.8445 64.4104 32.9015 64.4086L43.5328 65.5195C45.4935 65.7261 47.4757 65.5443 49.3661 64.9845C51.2565 64.4247 53.0181 63.4978 54.5502 62.257C56.0823 61.0161 57.3548 59.4855 58.2952 57.7527C59.2355 56.0198 59.8251 54.1186 60.0305 52.1578L60.2742 49.8258L45.5906 48.2953C41.712 47.8866 37.8267 49.004 34.7577 51.4106C31.6887 53.8172 29.6771 57.3241 29.1492 61.1883L24.7734 60.7312L25.425 58.8516C27.2582 53.5921 30.4768 48.9249 34.7414 45.3422L42.3187 46.1461V46.1508L43.7883 46.3031L44.9765 46.4297C44.9976 46.4317 45.0187 46.4332 45.0398 46.4344L54.314 47.4023C61.0312 48.0961 67.0687 43.2305 67.7648 36.4992L68.0062 34.1695L56.0297 32.9203H56.0226C49.4437 32.2125 43.5773 36.8766 42.6328 43.3383L38.0929 42.8531C43.2497 39.1054 47.2396 33.9737 49.6008 28.0523L49.9359 27.8883C58.95 23.5031 62.6953 12.6539 58.3031 3.66094H58.3055ZM50.1656 22.2703C50.1396 22.2608 50.113 22.2529 50.0859 22.2469C49.4245 19.6751 49.5384 16.9651 50.4133 14.4578C51.2883 11.9506 52.8852 9.75813 55.0031 8.15625C55.6817 10.7236 55.5843 13.4344 54.7234 15.9464C53.8624 18.4584 52.2764 20.659 50.1656 22.2703ZM30.3 24.7102C29.6015 23.2753 29.3742 21.6564 29.6508 20.0847C29.9273 18.513 30.6935 17.0688 31.8398 15.9586L34.8961 22.2352C35.5941 23.6699 35.8204 25.2886 35.5425 26.8597C35.2647 28.4308 34.4969 29.8737 33.3492 30.982L30.3 24.7102ZM15.1078 40.9242C14.0883 38.8318 13.8072 36.4558 14.3102 34.1833C14.8133 31.9107 16.0708 29.8753 17.8781 28.4086L22.1672 37.2094C23.1828 39.303 23.4623 41.6804 22.9604 43.9526C22.4585 46.2247 21.2046 48.2611 19.4015 49.732L15.1101 40.9266L15.1078 40.9242ZM54.7992 42.7406L47.85 42.0141C48.4964 40.5586 49.5876 39.3455 50.9668 38.5492C52.3459 37.7528 53.9421 37.4142 55.5258 37.582H55.5328L62.4914 38.3086C61.8388 39.7627 60.7438 40.9737 59.3626 41.7691C57.9814 42.5645 56.3844 42.906 54.7992 42.7406ZM34.2656 59.8359C35.0307 57.6345 36.5179 55.7565 38.4855 54.5072C40.453 53.2579 42.7852 52.7107 45.1031 52.9547L54.8578 53.9719C54.0927 56.1734 52.6055 58.0513 50.6379 59.3006C48.6704 60.5499 46.3381 61.0971 44.0203 60.8531L34.2656 59.8359Z" fill="#19231C"/>
</svg>
