<svg width="75" height="75" viewBox="0 0 75 75" fill="none" xmlns="http://www.w3.org/2000/svg">
<path d="M50 37.5C50 34.0625 52.8125 31.25 56.25 31.25C59.6875 31.25 62.5 34.0625 62.5 37.5C62.5 40.9375 59.6875 43.75 56.25 43.75C52.8125 43.75 50 40.9375 50 37.5ZM31.25 37.5C31.25 34.0625 34.0625 31.25 37.5 31.25C40.9375 31.25 43.75 34.0625 43.75 37.5C43.75 40.9375 40.9375 43.75 37.5 43.75C34.0625 43.75 31.25 40.9375 31.25 37.5ZM12.5 37.5C12.5 34.0625 15.3125 31.25 18.75 31.25C22.1875 31.25 25 34.0625 25 37.5C25 40.9375 22.1875 43.75 18.75 43.75C15.3125 43.75 12.5 40.9375 12.5 37.5ZM40.625 56.25C40.625 52.8125 43.4375 50 46.875 50C50.3125 50 53.125 52.8125 53.125 56.25C53.125 59.6875 50.3125 62.5 46.875 62.5C43.4375 62.5 40.625 59.6875 40.625 56.25ZM21.875 56.25C21.875 52.8125 24.6875 50 28.125 50C31.5625 50 34.375 52.8125 34.375 56.25C34.375 59.6875 31.5625 62.5 28.125 62.5C24.6875 62.5 21.875 59.6875 21.875 56.25ZM40.625 18.75C40.625 15.3125 43.4375 12.5 46.875 12.5C50.3125 12.5 53.125 15.3125 53.125 18.75C53.125 22.1875 50.3125 25 46.875 25C43.4375 25 40.625 22.1875 40.625 18.75ZM21.875 18.75C21.875 15.3125 24.6875 12.5 28.125 12.5C31.5625 12.5 34.375 15.3125 34.375 18.75C34.375 22.1875 31.5625 25 28.125 25C24.6875 25 21.875 22.1875 21.875 18.75Z" fill="#e9f0f2"/>
</svg>
