<svg width="75" height="75" viewBox="0 0 75 75" fill="none" xmlns="http://www.w3.org/2000/svg">
<path d="M37.4999 68.75C34.0314 68.7563 30.5868 68.1752 27.3124 67.0313C26.4314 66.7757 25.5086 66.6966 24.5969 66.7985C23.6853 66.9004 22.8027 67.1812 21.9999 67.625C19.6041 68.8065 16.8595 69.0732 14.2811 68.375C12.4572 67.8592 10.7958 66.8847 9.45553 65.5444C8.11522 64.2041 7.14069 62.5427 6.62489 60.7187C5.95799 58.1793 6.2241 55.4849 7.37489 53.125C7.81864 52.3221 8.09951 51.4396 8.2014 50.5279C8.30329 49.6163 8.22419 48.6935 7.96864 47.8125C5.70197 41.1992 5.70197 34.0195 7.96864 27.4063C9.4683 22.8916 11.9919 18.785 15.3422 15.4076C18.6925 12.0301 22.7787 9.47349 27.2811 7.9375C33.8944 5.67083 41.0741 5.67083 47.6874 7.9375C48.5849 8.21508 49.5292 8.30834 50.4636 8.21167C51.398 8.11501 52.3033 7.83041 53.1249 7.375C55.5206 6.19345 58.2652 5.92677 60.8436 6.625C62.6676 7.1408 64.329 8.11533 65.6693 9.45564C67.0096 10.7959 67.9841 12.4573 68.4999 14.2813C69.1282 16.8355 68.8177 19.5306 67.6249 21.875C67.1811 22.6778 66.9003 23.5604 66.7984 24.4721C66.6965 25.3837 66.7756 26.3065 67.0311 27.1875C69.2978 33.8008 69.2978 40.9805 67.0311 47.5937C65.5119 52.0886 62.9761 56.1725 59.6211 59.5275C56.2661 62.8825 52.1823 65.4183 47.6874 66.9375C44.4111 68.0855 40.9711 68.6976 37.4999 68.75ZM25.4999 60.5C26.8063 60.5015 28.104 60.7125 29.3436 61.125C34.6472 62.9633 40.4151 62.9633 45.7186 61.125C49.3068 59.9236 52.5679 57.9073 55.2462 55.2344C57.9246 52.5615 59.9474 49.3045 61.1561 45.7187C62.9944 40.4152 62.9944 34.6473 61.1561 29.3438C60.6289 27.6855 60.4375 25.9387 60.5931 24.2056C60.7487 22.4725 61.2482 20.7878 62.0624 19.25C62.5648 18.197 62.6648 16.9966 62.3436 15.875C62.1224 15.136 61.721 14.4636 61.1755 13.9181C60.6301 13.3727 59.9576 12.9713 59.2186 12.75C58.097 12.4288 56.8966 12.5289 55.8436 13.0313C54.3058 13.8454 52.6211 14.3449 50.888 14.5005C49.1549 14.6561 47.4082 14.4647 45.7499 13.9375C40.4463 12.0992 34.6784 12.0992 29.3749 13.9375C25.7761 15.1202 22.5005 17.1214 19.8057 19.7837C17.1108 22.4461 15.07 25.6971 13.8436 29.2812C12.0053 34.5848 12.0053 40.3527 13.8436 45.6562C14.3709 47.3145 14.5623 49.0613 14.4067 50.7944C14.251 52.5275 13.7516 54.2122 12.9374 55.75C12.435 56.803 12.335 58.0034 12.6561 59.125C12.8774 59.864 13.2788 60.5364 13.8243 61.0819C14.3697 61.6273 15.0422 62.0287 15.7811 62.25C16.9028 62.5712 18.1031 62.4711 19.1561 61.9687C21.1255 60.9863 23.2991 60.483 25.4999 60.5Z" fill="#19231C"/>
<path d="M25 37.5H18.75C18.75 32.5272 20.7254 27.7581 24.2417 24.2417C27.7581 20.7254 32.5272 18.75 37.5 18.75V25C34.1848 25 31.0054 26.317 28.6612 28.6612C26.317 31.0054 25 34.1848 25 37.5Z" fill="#19231C"/>
</svg>
