<svg width="75" height="75" viewBox="0 0 75 75" fill="none" xmlns="http://www.w3.org/2000/svg">
<path d="M67.0313 27.3125C66.7584 26.413 66.6703 25.4675 66.7724 24.5331C66.8744 23.5986 67.1645 22.6944 67.625 21.875C68.8066 19.4792 69.0733 16.7347 68.375 14.1563C67.8592 12.3323 66.8847 10.6709 65.5444 9.33064C64.2041 7.99033 62.5427 7.0158 60.7188 6.5C58.1645 5.8717 55.4695 6.18224 53.125 7.375C52.3222 7.81875 51.4396 8.09963 50.528 8.20152C49.6163 8.3034 48.6936 8.2243 47.8125 7.96875C41.1993 5.70208 34.0196 5.70208 27.4063 7.96875C22.8916 9.46841 18.785 11.9921 15.4076 15.3424C12.0302 18.6927 9.47354 22.7788 7.93755 27.2812C5.67088 33.8945 5.67088 41.0743 7.93755 47.6875C8.21513 48.585 8.30839 49.5293 8.21172 50.4637C8.11506 51.3981 7.83046 52.3034 7.37505 53.125C6.1935 55.5208 5.92682 58.2653 6.62505 60.8437C7.14085 62.6677 8.11538 64.3291 9.45569 65.6694C10.796 67.0097 12.4574 67.9842 14.2813 68.5C16.8356 69.1283 19.5306 68.8178 21.875 67.625C22.6779 67.1813 23.5605 66.9004 24.4721 66.7985C25.3838 66.6966 26.3065 66.7757 27.1875 67.0313C30.5016 68.1892 33.9896 68.7705 37.5 68.75C40.9749 68.7412 44.4256 68.1713 47.7188 67.0625C52.2137 65.5433 56.2975 63.0075 59.6525 59.6525C63.0075 56.2975 65.5433 52.2137 67.0625 47.7188C69.3191 41.102 69.3081 33.9223 67.0313 27.3125ZM37.5 21.875C33.356 21.875 29.3818 23.5212 26.4515 26.4515C23.5212 29.3817 21.875 33.356 21.875 37.5H15.625C15.625 31.6984 17.9297 26.1344 22.0321 22.032C26.1344 17.9297 31.6984 15.625 37.5 15.625V21.875Z" fill="#e9f0f2"/>
</svg>
