<svg width="75" height="75" viewBox="0 0 75 75" fill="none" xmlns="http://www.w3.org/2000/svg">
<path d="M48.4375 30.0938C44.3893 32.2523 40.6997 35.0247 37.5 38.3125C34.3169 35.006 30.6242 32.2312 26.5625 30.0938C27.3125 21.4375 31 12.9375 37.6875 6.25C44.3125 12.875 47.8438 21.375 48.4375 30.0938ZM37.5 48.2812C44.2188 38.0312 55.6875 31.25 68.75 31.25C68.75 62.5 39.625 68.375 37.5 68.75C35.375 68.4063 6.25 62.5 6.25 31.25C19.3125 31.25 30.7812 38.0312 37.5 48.2812ZM37.6563 16.2188C35.5938 19.4688 34.1563 23.0625 33.375 26.8125L37.5 29.8438L41.7188 26.7812C41 23.0312 39.625 19.4375 37.6563 16.2188ZM37.5 62.4062C37.5 62.4062 56.25 59.375 61.6875 38.2812C43.75 43.75 37.5 59.6875 37.5 59.6875C37.5 59.6875 28.125 40.625 13.3125 38.3125C18.75 59.375 37.5 62.4062 37.5 62.4062Z" fill="#19231C"/>
</svg>
