<svg width="75" height="75" viewBox="0 0 75 75" fill="none" xmlns="http://www.w3.org/2000/svg">
<path d="M37.5 65.625C49.5812 65.625 59.375 55.8312 59.375 43.75C59.375 31.6688 49.5812 21.875 37.5 21.875C25.4188 21.875 15.625 31.6688 15.625 43.75C15.625 55.8312 25.4188 65.625 37.5 65.625Z" stroke="#19231C" stroke-width="6.25" stroke-linecap="round"/>
<path d="M44.6656 13.4156C43.8906 14.1906 42.5938 14.7656 41.1156 15.1344C41.4844 13.6562 42.0594 12.3594 42.8344 11.5844C43.6094 10.8094 44.9063 10.2344 46.3844 9.86562C46.0156 11.3437 45.4406 12.6406 44.6656 13.4156Z" stroke="#19231C" stroke-width="6.25" stroke-linecap="round"/>
<path d="M28.125 50C29.8509 50 31.25 48.6009 31.25 46.875C31.25 45.1491 29.8509 43.75 28.125 43.75C26.3991 43.75 25 45.1491 25 46.875C25 48.6009 26.3991 50 28.125 50Z" fill="#e9f0f2"/>
<path d="M45.3125 53.125C47.9013 53.125 50 51.0263 50 48.4375C50 45.8487 47.9013 43.75 45.3125 43.75C42.7237 43.75 40.625 45.8487 40.625 48.4375C40.625 51.0263 42.7237 53.125 45.3125 53.125Z" fill="#e9f0f2"/>
<path d="M37.5 59.375C39.2259 59.375 40.625 57.9759 40.625 56.25C40.625 54.5241 39.2259 53.125 37.5 53.125C35.7741 53.125 34.375 54.5241 34.375 56.25C34.375 57.9759 35.7741 59.375 37.5 59.375Z" fill="#e9f0f2"/>
</svg>
