<svg width="75" height="75" viewBox="0 0 75 75" fill="none" xmlns="http://www.w3.org/2000/svg">
<mask id="mask0_2_4" style="mask-type:luminance" maskUnits="userSpaceOnUse" x="7" y="7" width="61" height="65">
<path d="M64.0625 40.625C64.0625 56.1578 54.6875 68.75 37.5 68.75C20.3125 68.75 10.9375 56.1563 10.9375 40.625C10.9375 34.875 12.6625 29.5281 15.625 25.0734C20.6641 17.4953 27.7187 20.3125 37.5 20.3125C47.2813 20.3125 54.3359 17.4953 59.375 25.0734C62.3359 29.5266 64.0625 34.875 64.0625 40.625Z" fill="white" stroke="white" stroke-width="6.25" stroke-linecap="round" stroke-linejoin="round"/>
<path d="M40.625 20.3125L45.3125 14.0625H40.625L37.5 10.9375L34.375 14.0625H29.6875L34.375 20.3125" stroke="white" stroke-width="6.25" stroke-linecap="round" stroke-linejoin="round"/>
<path d="M28.125 34.375C29.8509 34.375 31.25 32.9759 31.25 31.25C31.25 29.5241 29.8509 28.125 28.125 28.125C26.3991 28.125 25 29.5241 25 31.25C25 32.9759 26.3991 34.375 28.125 34.375Z" fill="black"/>
<path d="M23.4375 45.3125C25.1634 45.3125 26.5625 43.9134 26.5625 42.1875C26.5625 40.4616 25.1634 39.0625 23.4375 39.0625C21.7116 39.0625 20.3125 40.4616 20.3125 42.1875C20.3125 43.9134 21.7116 45.3125 23.4375 45.3125Z" fill="black"/>
<path d="M32.8125 42.1875C34.5384 42.1875 35.9375 40.7884 35.9375 39.0625C35.9375 37.3366 34.5384 35.9375 32.8125 35.9375C31.0866 35.9375 29.6875 37.3366 29.6875 39.0625C29.6875 40.7884 31.0866 42.1875 32.8125 42.1875Z" fill="black"/>
<path d="M28.125 53.125C29.8509 53.125 31.25 51.7259 31.25 50C31.25 48.2741 29.8509 46.875 28.125 46.875C26.3991 46.875 25 48.2741 25 50C25 51.7259 26.3991 53.125 28.125 53.125Z" fill="black"/>
</mask>
<g mask="url(#mask0_2_4)">
<path d="M0 0H75V75H0V0Z" fill="#19231C"/>
</g>
</svg>
