<svg width="75" height="75" viewBox="0 0 75 75" fill="none" xmlns="http://www.w3.org/2000/svg">
<g clip-path="url(#clip0_2_98)">
<path fill-rule="evenodd" clip-rule="evenodd" d="M37.5001 6.25C34.8751 6.25 32.3438 6.88125 30.3688 8.06875C28.4532 9.21563 26.5626 11.2406 26.5626 14.0625C26.5626 16.8844 28.4532 18.9063 30.3688 20.0563C32.3438 21.2438 34.8751 21.875 37.5001 21.875C40.1251 21.875 42.6563 21.2438 44.6313 20.0563C46.5469 18.9094 48.4376 16.8844 48.4376 14.0625C48.4376 11.2406 46.5469 9.21875 44.6313 8.06875C42.6563 6.88125 40.1282 6.25 37.5001 6.25ZM33.5844 13.4281C33.0938 13.7219 32.9094 13.95 32.8407 14.0625C32.9094 14.175 33.0938 14.4063 33.5844 14.6969C34.4344 15.2094 35.8126 15.625 37.5001 15.625C39.1876 15.625 40.5657 15.2094 41.4157 14.6969C41.9063 14.4031 42.0907 14.175 42.1594 14.0625C42.0907 13.95 41.9063 13.7187 41.4157 13.4281C40.5657 12.9156 39.1876 12.5 37.5001 12.5C35.8126 12.5 34.4344 12.9156 33.5844 13.4281ZM37.5001 53.125C34.8751 53.125 32.3438 53.7563 30.3688 54.9438C28.4532 56.0906 26.5626 58.1125 26.5626 60.9375C26.5626 63.7625 28.4532 65.7812 30.3688 66.9312C32.3438 68.1187 34.8751 68.75 37.5001 68.75C40.1251 68.75 42.6563 68.1187 44.6313 66.9312C46.5469 65.7844 48.4376 63.7625 48.4376 60.9375C48.4376 58.1125 46.5469 56.0938 44.6313 54.9438C42.6563 53.7563 40.1282 53.125 37.5001 53.125ZM33.5844 60.3031C33.0938 60.5969 32.9094 60.825 32.8407 60.9375C32.9094 61.05 33.0938 61.2812 33.5844 61.5719C34.4344 62.0812 35.8126 62.5 37.5001 62.5C39.1876 62.5 40.5657 62.0812 41.4157 61.5719C41.9063 61.2781 42.0907 61.05 42.1594 60.9375C42.0907 60.825 41.9063 60.5938 41.4157 60.3031C40.5657 59.7938 39.1876 59.375 37.5001 59.375C35.8126 59.375 34.4344 59.7938 33.5844 60.3031ZM10.4376 21.875C9.12507 24.15 8.40632 26.6563 8.44695 28.9594C8.48445 31.1938 9.2907 33.8406 11.7344 35.2531C14.1782 36.6656 16.8751 36.0375 18.8282 34.9531C20.8438 33.8375 22.6563 31.9625 23.9688 29.6875C25.2813 27.4125 26.0001 24.9062 25.9594 22.6C25.9219 20.3687 25.1157 17.7219 22.6719 16.3094C20.2282 14.8969 17.5313 15.525 15.5782 16.6063C13.5626 17.725 11.7501 19.6 10.4376 21.875ZM14.6938 28.8563C14.7032 29.425 14.8094 29.7 14.8719 29.8156C15.0063 29.8156 15.2969 29.7656 15.7938 29.4906C16.6626 29.0094 17.7126 28.0219 18.5563 26.5625C19.4001 25.1 19.7282 23.7 19.7126 22.7062C19.7001 22.1375 19.5969 21.8625 19.5313 21.7469C19.4001 21.7469 19.1094 21.7938 18.6126 22.0719C17.7438 22.5531 16.6938 23.5375 15.8501 25C15.0063 26.4625 14.6782 27.8625 14.6938 28.8563ZM51.0313 45.3125C49.7188 47.5875 49.0001 50.0938 49.0407 52.3969C49.0782 54.6313 49.8844 57.2781 52.3282 58.6906C54.7751 60.1031 57.4719 59.475 59.4219 58.3938C61.4376 57.275 63.2501 55.4 64.5626 53.125C65.8751 50.85 66.5938 48.3438 66.5563 46.0375C66.5188 43.8063 65.7126 41.1594 63.2657 39.7469C60.822 38.3344 58.1251 38.9625 56.1719 40.0438C54.1563 41.1625 52.3438 43.0375 51.0313 45.3125ZM55.2907 52.2937C55.3001 52.8625 55.4032 53.1375 55.4688 53.2531C55.6001 53.2531 55.8907 53.2063 56.3907 52.9281C57.2563 52.4469 58.3063 51.4594 59.1501 50C59.9938 48.5375 60.3219 47.1375 60.3063 46.1437C60.2969 45.575 60.1907 45.3 60.1282 45.1844C59.9969 45.1844 59.7063 45.2312 59.2063 45.5094C58.3376 45.9906 57.2876 46.975 56.4438 48.4375C55.6001 49.9 55.2719 51.3 55.2876 52.2937H55.2907ZM15.5782 58.3938C13.5626 57.275 11.7501 55.4 10.4376 53.125C9.12507 50.85 8.40632 48.3437 8.44695 46.0406C8.48445 43.8062 9.2907 41.1594 11.7344 39.7469C14.1782 38.3344 16.8751 38.9625 18.8282 40.0469C20.8438 41.1656 22.6563 43.0375 23.9688 45.3125C25.2813 47.5875 26.0001 50.0937 25.9594 52.4C25.9219 54.6312 25.1157 57.2781 22.6719 58.6906C20.2282 60.1031 17.5313 59.4781 15.5782 58.3938ZM19.5313 53.25C19.4001 53.25 19.1094 53.2031 18.6126 52.925C17.7438 52.4438 16.6938 51.4594 15.8501 49.9969C15.0063 48.5344 14.6782 47.1344 14.6938 46.1406C14.7032 45.5719 14.8094 45.2969 14.8719 45.1813C15.0063 45.1813 15.2969 45.2313 15.7938 45.5063C16.6626 45.9875 17.7126 46.975 18.5563 48.4344C19.4001 49.8969 19.7282 51.2969 19.7126 52.2906C19.7001 52.8594 19.5969 53.1344 19.5313 53.25ZM56.1719 34.9531C54.1563 33.8344 52.3438 31.9594 51.0313 29.6844C49.7188 27.4094 49.0001 24.9031 49.0407 22.6C49.0782 20.3656 49.8844 17.7187 52.3282 16.3062C54.7751 14.8937 57.4719 15.5219 59.4219 16.6063C61.4376 17.725 63.2501 19.5969 64.5626 21.8719C65.8751 24.1469 66.5938 26.6531 66.5563 28.9594C66.5188 31.1906 65.7126 33.8375 63.2657 35.25C60.822 36.6625 58.1251 36.0375 56.1719 34.9531ZM60.1282 29.8125C59.9969 29.8125 59.7063 29.7656 59.2063 29.4875C58.3376 29.0062 57.2876 28.0219 56.4438 26.5594C55.6001 25.0969 55.2719 23.6969 55.2876 22.7031C55.3001 22.1344 55.4032 21.8594 55.4688 21.7438C55.6001 21.7438 55.8907 21.7937 56.3907 22.0687C57.2563 22.55 58.3063 23.5375 59.1501 24.9969C59.9938 26.4594 60.3219 27.8594 60.3063 28.8531C60.2969 29.4219 60.1907 29.6969 60.1282 29.8125Z" fill="#e9f0f2"/>
</g>
<defs>
<clipPath id="clip0_2_98">
<rect width="75" height="75" fill="white"/>
</clipPath>
</defs>
</svg>
