<svg width="75" height="75" viewBox="0 0 75 75" fill="none" xmlns="http://www.w3.org/2000/svg">
<g clip-path="url(#clip0_2_102)">
<path fill-rule="evenodd" clip-rule="evenodd" d="M37.5 6.25C34.875 6.25 32.3438 6.88125 30.3688 8.06875C28.4532 9.21563 26.5625 11.2406 26.5625 14.0625C26.5625 16.8844 28.4532 18.9063 30.3688 20.0563C32.3438 21.2438 34.8719 21.875 37.5 21.875C40.125 21.875 42.6563 21.2438 44.6313 20.0563C46.5469 18.9094 48.4375 16.8844 48.4375 14.0625C48.4375 11.2406 46.5469 9.21875 44.6313 8.06875C42.6563 6.88125 40.125 6.25 37.5 6.25ZM37.5 53.125C34.875 53.125 32.3438 53.7563 30.3688 54.9438C28.4532 56.0906 26.5625 58.1125 26.5625 60.9375C26.5625 63.7625 28.4532 65.7812 30.3688 66.9312C32.3438 68.1187 34.8719 68.75 37.5 68.75C40.125 68.75 42.6563 68.1187 44.6313 66.9312C46.5469 65.7844 48.4375 63.7625 48.4375 60.9375C48.4375 58.1125 46.5469 56.0938 44.6313 54.9438C42.6563 53.7563 40.125 53.125 37.5 53.125ZM10.4375 21.875C9.12503 24.15 8.40628 26.6563 8.44378 28.9594C8.48128 31.1938 9.28753 33.8406 11.7344 35.2531C14.1782 36.6656 16.875 36.0375 18.8282 34.9562C20.8438 33.8375 22.6563 31.9625 23.9688 29.6875C25.2813 27.4125 26 24.9062 25.9594 22.6031C25.9219 20.3687 25.1157 17.7219 22.6719 16.3094C20.225 14.8969 17.5282 15.525 15.5782 16.6063C13.5625 17.7281 11.75 19.6 10.4375 21.875ZM51.0313 45.3125C49.7188 47.5875 49 50.0938 49.0407 52.3969C49.0782 54.6313 49.8844 57.2781 52.3282 58.6906C54.7719 60.1031 57.4688 59.475 59.4219 58.3938C61.4375 57.275 63.25 55.4 64.5625 53.125C65.875 50.85 66.5938 48.3437 66.5532 46.0406C66.5157 43.8062 65.7094 41.1594 63.2657 39.7469C60.8219 38.3344 58.125 38.9625 56.1719 40.0469C54.1563 41.1625 52.3438 43.0375 51.0313 45.3125ZM15.5782 58.3938C13.5625 57.275 11.75 55.4 10.4375 53.125C9.12503 50.85 8.40628 48.3437 8.44378 46.0406C8.48128 43.8062 9.28753 41.1594 11.7344 39.7469C14.1782 38.3344 16.875 38.9625 18.8282 40.0469C20.8438 41.1625 22.6563 43.0375 23.9688 45.3125C25.2813 47.5875 26 50.0938 25.9594 52.3969C25.9219 54.6313 25.1157 57.2781 22.6719 58.6906C20.225 60.1031 17.5282 59.475 15.5782 58.3938ZM56.1719 34.9562C54.1563 33.8375 52.3438 31.9625 51.0313 29.6875C49.7188 27.4125 49 24.9062 49.0407 22.6031C49.0782 20.3687 49.8844 17.7219 52.3282 16.3094C54.7719 14.8969 57.4688 15.525 59.4219 16.6063C61.4375 17.7281 63.25 19.6 64.5625 21.875C65.875 24.15 66.5938 26.6563 66.5532 28.9594C66.5157 31.1938 65.7094 33.8406 63.2657 35.2531C60.8219 36.6656 58.125 36.0375 56.1719 34.9562Z" fill="#e9f0f2"/>
</g>
<defs>
<clipPath id="clip0_2_102">
<rect width="75" height="75" fill="white"/>
</clipPath>
</defs>
</svg>
