<svg width="75" height="75" viewBox="0 0 75 75" fill="none" xmlns="http://www.w3.org/2000/svg">
<path d="M26.2992 40.582L21.3047 37.4531C21.2196 37.3995 21.1224 37.3682 21.022 37.3621C20.9216 37.3561 20.8214 37.3755 20.7304 37.4185C20.6395 37.4615 20.561 37.5267 20.502 37.6081C20.443 37.6896 20.4055 37.7846 20.393 37.8844L19.6547 43.732C19.641 43.8446 19.6596 43.9587 19.7081 44.0611C19.7566 44.1636 19.8332 44.2502 19.9289 44.3109L24.9258 47.4398C25.0108 47.4929 25.1078 47.5238 25.2079 47.5296C25.3079 47.5353 25.4078 47.5159 25.4984 47.4729C25.589 47.43 25.6673 47.3649 25.7261 47.2838C25.785 47.2027 25.8225 47.108 25.8352 47.0086L26.5734 41.1609C26.5997 41.0477 26.5869 40.9288 26.5371 40.8237C26.4874 40.7186 26.4035 40.6335 26.2992 40.582ZM36.6375 41.8875C36.625 41.9873 36.5875 42.0823 36.5285 42.1637C36.4695 42.2452 36.391 42.3104 36.3 42.3534C36.2091 42.3964 36.1089 42.4158 36.0085 42.4097C35.9081 42.4037 35.8109 42.3724 35.7258 42.3188L30.7289 39.1898C30.6336 39.1288 30.5575 39.0421 30.5094 38.9396C30.4613 38.8372 30.4432 38.7233 30.457 38.6109L31.1953 32.7633C31.2077 32.6637 31.2449 32.5688 31.3036 32.4873C31.3623 32.4059 31.4406 32.3405 31.5312 32.2973C31.6218 32.2541 31.7219 32.2345 31.8221 32.2401C31.9223 32.2458 32.0195 32.2766 32.1047 32.3297L37.1016 35.4609C37.1969 35.5215 37.2732 35.6077 37.3217 35.7097C37.3702 35.8117 37.389 35.9253 37.3758 36.0375L36.6375 41.8875ZM46.5047 37.207C46.5898 37.2607 46.687 37.292 46.7874 37.298C46.8878 37.3041 46.988 37.2847 47.079 37.2417C47.1699 37.1987 47.2484 37.1335 47.3074 37.052C47.3664 36.9706 47.4039 36.8756 47.4164 36.7758L48.1524 30.9258C48.1658 30.8138 48.1474 30.7004 48.0993 30.5984C48.0512 30.4964 47.9754 30.4101 47.8805 30.3492L42.8836 27.2203C42.7985 27.1667 42.7013 27.1354 42.6009 27.1293C42.5005 27.1233 42.4003 27.1426 42.3093 27.1856C42.2184 27.2286 42.1399 27.2939 42.0809 27.3753C42.0219 27.4568 41.9844 27.5518 41.9719 27.6516L41.2336 33.4992C41.22 33.6118 41.2385 33.7259 41.287 33.8283C41.3355 33.9308 41.4121 34.0174 41.5078 34.0781L46.5047 37.207ZM32.2102 46.3266L37.2047 49.4578C37.3 49.5184 37.3764 49.6046 37.4249 49.7066C37.4734 49.8086 37.4921 49.9222 37.4789 50.0344L36.7406 55.8844C36.7281 55.9842 36.6906 56.0792 36.6317 56.1606C36.5727 56.2421 36.4941 56.3073 36.4032 56.3503C36.3123 56.3933 36.212 56.4127 36.1116 56.4066C36.0112 56.4005 35.914 56.3693 35.8289 56.3156L30.8344 53.1867C30.7387 53.126 30.6621 53.0394 30.6136 52.9369C30.565 52.8345 30.5465 52.7204 30.5602 52.6078L31.2984 46.7602C31.3106 46.6602 31.3478 46.5649 31.4067 46.4831C31.4655 46.4014 31.5441 46.3359 31.635 46.2926C31.726 46.2493 31.8264 46.2298 31.927 46.2357C32.0275 46.2416 32.1249 46.2729 32.2102 46.3266ZM47.9836 44.3438L42.9891 41.2148C42.9038 41.1606 42.8061 41.1289 42.7053 41.1227C42.6044 41.1165 42.5036 41.1359 42.4123 41.1792C42.321 41.2226 42.2422 41.2883 42.1832 41.3704C42.1242 41.4524 42.087 41.5481 42.075 41.6484L41.3391 47.4961C41.3254 47.6086 41.3439 47.7228 41.3925 47.8252C41.441 47.9277 41.5176 48.0143 41.6133 48.075L46.6078 51.2039C46.6929 51.2581 46.7904 51.2898 46.8911 51.2962C46.9918 51.3025 47.0925 51.2833 47.1837 51.2402C47.275 51.1972 47.3538 51.1317 47.413 51.05C47.4721 50.9682 47.5096 50.8728 47.5219 50.7727L48.2578 44.9227C48.271 44.8105 48.2523 44.6969 48.2038 44.5949C48.1553 44.4929 48.0789 44.4043 47.9836 44.3438Z" fill="#19231C"/>
<path d="M26.8242 12.7852C25.2937 9.1875 22.3758 6.18047 18.5156 4.70391C17.336 8.3453 17.6107 12.3018 19.282 15.7453C16.0151 14.7032 12.4745 14.9394 9.375 16.4063C10.3842 18.5622 11.9115 20.4346 13.8206 21.8566C15.7296 23.2786 17.961 24.2058 20.3156 24.5555C17.223 27.3288 15.1094 31.0274 14.2901 35.0998C13.4707 39.1721 13.9894 43.4003 15.7688 47.1539L22.4531 61.2445C24.6455 65.8668 28.5841 69.4289 33.4027 71.1474C38.2212 72.866 43.5251 72.6002 48.1477 70.4086L50.6602 69.218C55.2824 67.0256 58.8445 63.0869 60.5631 58.2684C62.2816 53.4499 62.0158 48.146 59.8242 43.5234L53.1422 29.4328C49.4578 21.6633 41.2406 17.5078 33.1523 18.5977C35.6367 14.6227 36.0773 9.42422 33.8789 4.78594C32.2238 5.5739 30.7455 6.6889 29.5331 8.06369C28.3206 9.43848 27.3991 11.0446 26.8242 12.7852ZM21.1219 30.7078L24.7313 32.9695C24.8165 33.0232 24.9139 33.0545 25.0144 33.0604C25.115 33.0663 25.2154 33.0468 25.3064 33.0035C25.3973 32.9602 25.4759 32.8947 25.5347 32.813C25.5936 32.7312 25.6308 32.6359 25.643 32.5359L26.3812 26.6883C26.3939 26.5826 26.3782 26.4755 26.3358 26.3779C26.2934 26.2802 26.2257 26.1957 26.1398 26.1328C26.4047 25.9875 26.6789 25.8469 26.9555 25.7156L29.4656 24.525C29.7232 24.4035 29.9843 24.2894 30.2484 24.1828C30.2484 24.3938 30.3586 24.6047 30.5367 24.7172L35.5336 27.8461C35.6186 27.8992 35.7156 27.93 35.8157 27.9358C35.9157 27.9416 36.0157 27.9221 36.1062 27.8792C36.1968 27.8362 36.2751 27.7712 36.3339 27.69C36.3928 27.6089 36.4303 27.5143 36.443 27.4148L36.9703 23.168C39.5097 23.383 41.9482 24.2601 44.0427 25.7118C46.1372 27.1635 47.8145 29.1391 48.907 31.4414L52.5328 39.0891L52.118 42.3844C52.1043 42.4969 52.1228 42.611 52.1714 42.7135C52.2199 42.8159 52.2965 42.9025 52.3922 42.9633L55.207 44.7281L55.5891 45.5297C56.6531 47.775 57.0937 50.1492 56.9836 52.4672L53.9602 50.5758C53.8749 50.5221 53.7775 50.4909 53.677 50.4849C53.5764 50.479 53.476 50.4986 53.385 50.5418C53.2941 50.5851 53.2155 50.6506 53.1567 50.7324C53.0978 50.8141 53.0606 50.9094 53.0484 51.0094L52.3102 56.857C52.2965 56.9696 52.315 57.0837 52.3635 57.1861C52.4121 57.2886 52.4886 57.3752 52.5844 57.4359L55.0922 58.9969C53.6145 61.609 51.3647 63.7 48.6516 64.9828L47.6414 65.4609C47.6779 65.3931 47.7017 65.3193 47.7117 65.243L48.4523 59.3953C48.4655 59.2831 48.4468 59.1695 48.3983 59.0675C48.3498 58.9655 48.2735 58.8793 48.1781 58.8188L43.1812 55.6875C43.0962 55.6339 42.999 55.6026 42.8986 55.5965C42.7982 55.5905 42.6979 55.6098 42.607 55.6528C42.5161 55.6958 42.4375 55.7611 42.3785 55.8425C42.3195 55.924 42.282 56.019 42.2695 56.1188L41.5336 61.9688C41.5202 62.0807 41.5385 62.1942 41.5866 62.2961C41.6347 62.3981 41.7106 62.4845 41.8055 62.5453L46.8023 65.6766C46.8727 65.7187 46.943 65.7445 47.0156 65.7586L46.1391 66.1734C43.3872 67.4844 40.2929 67.8968 37.2937 67.3523L37.65 64.5164C37.6757 64.4035 37.6626 64.2852 37.6129 64.1806C37.5631 64.076 37.4796 63.9912 37.3758 63.9398L32.3812 60.8086C32.296 60.7549 32.1986 60.7237 32.0981 60.7177C31.9975 60.7118 31.8971 60.7314 31.8061 60.7746C31.7152 60.8179 31.6366 60.8834 31.5778 60.9652C31.5189 61.0469 31.4817 61.1422 31.4695 61.2422L31.05 64.6102C29.1848 63.1959 27.6885 61.3523 26.6883 59.2359L26.2734 58.3617L26.6789 55.1578C26.6926 55.0453 26.674 54.9312 26.6255 54.8287C26.577 54.7262 26.5004 54.6396 26.4047 54.5789L23.6672 52.8633L20.0063 45.1453C18.9168 42.8506 18.4465 40.3107 18.6422 37.7781C18.8379 35.2454 19.6928 32.8079 21.1219 30.7078Z" fill="#19231C"/>
</svg>
