<svg width="75" height="75" viewBox="0 0 75 75" fill="none" xmlns="http://www.w3.org/2000/svg">
<path d="M15.9844 48.2227V57.2086C18.7294 60.5747 22.1898 63.2869 26.1142 65.1482C30.0386 67.0094 34.3284 67.973 38.6719 67.9688C48.8063 67.9688 57.7406 62.8219 63 55.0008V42.4055C61.2 54.225 50.993 63.2813 38.6719 63.2813C28.4672 63.2813 19.7133 57.0703 15.9844 48.2227ZM58.6641 24.3188V20.2828C58.6571 19.3927 58.803 18.508 59.0953 17.6672C53.6322 12.3411 46.3016 9.36476 38.6719 9.375C31.8442 9.36487 25.2291 11.7493 19.9781 16.1133L19.9898 16.2563L19.9922 16.3195V22.6477C22.3003 19.9516 25.1655 17.788 28.3902 16.3059C31.615 14.8238 35.1228 14.0584 38.6719 14.0625C46.9078 14.0625 54.1969 18.1078 58.6641 24.3188Z" fill="#e9f0f2"/>
<path d="M57.4219 38.6719C57.4219 43.6447 55.4464 48.4138 51.9301 51.9301C48.4138 55.4464 43.6447 57.4219 38.6719 57.4219C33.6991 57.4219 28.9299 55.4464 25.4136 51.9301C21.8973 48.4138 19.9219 43.6447 19.9219 38.6719C19.9219 33.6991 21.8973 28.9299 25.4136 25.4136C28.9299 21.8973 33.6991 19.9219 38.6719 19.9219C43.6447 19.9219 48.4138 21.8973 51.9301 25.4136C55.4464 28.9299 57.4219 33.6991 57.4219 38.6719ZM38.6719 55.0781C40.8264 55.0781 42.9598 54.6538 44.9503 53.8293C46.9408 53.0048 48.7494 51.7963 50.2728 50.2728C51.7963 48.7494 53.0048 46.9408 53.8293 44.9503C54.6538 42.9598 55.0781 40.8264 55.0781 38.6719C55.0781 36.5174 54.6538 34.384 53.8293 32.3935C53.0048 30.403 51.7963 28.5944 50.2728 27.0709C48.7494 25.5474 46.9408 24.339 44.9503 23.5145C42.9598 22.69 40.8264 22.2656 38.6719 22.2656C34.3207 22.2656 30.1477 23.9941 27.0709 27.0709C23.9941 30.1477 22.2656 34.3207 22.2656 38.6719C22.2656 43.0231 23.9941 47.1961 27.0709 50.2728C30.1477 53.3496 34.3207 55.0781 38.6719 55.0781ZM70.2891 18.6094C70.2891 16.5 68.5781 14.7891 66.4688 14.7891C63.4219 14.7891 60.9844 17.25 61.0078 20.2734V33.2813C61.0078 36.218 62.7094 38.8477 65.3437 40.0383V60.2344C65.3437 61.4531 66.3281 62.4375 67.5469 62.4375H68.0859C69.3047 62.4375 70.2891 61.4531 70.2891 60.2344V18.6094ZM15.9844 14.7891C15.5617 14.7891 15.1563 14.957 14.8574 15.2559C14.5585 15.5547 14.3906 15.9601 14.3906 16.3828V22.6875C14.3906 23.1563 14.0156 23.5078 13.5703 23.5078C13.1016 23.5078 12.75 23.1328 12.75 22.6875V16.4531C12.75 15.5859 12.0703 14.8125 11.2031 14.7891C10.2891 14.7656 9.53906 15.4922 9.53906 16.3828V22.6875C9.53906 23.1563 9.16406 23.5078 8.71875 23.5078C8.25 23.5078 7.89844 23.1328 7.89844 22.6875V16.4531C7.89844 15.5859 7.21875 14.8125 6.35156 14.7891C5.4375 14.7656 4.6875 15.4922 4.6875 16.3828V27.1172C4.6875 29.2313 5.71172 31.118 7.28672 32.2945C8.69531 33.0891 8.69531 36.7266 8.69531 36.7266V60.2109C8.69531 61.4297 9.67969 62.4141 10.8984 62.4141H11.4375C12.6563 62.4141 13.6406 61.4297 13.6406 60.2109V36.7266C13.6406 36.7266 13.6406 33.232 15.0492 32.2945C15.8555 31.6934 16.5103 30.9123 16.9615 30.0135C17.4128 29.1147 17.648 28.1229 17.6484 27.1172V16.3828C17.6247 15.9557 17.4397 15.5536 17.1308 15.2577C16.8218 14.9619 16.4121 14.7943 15.9844 14.7891Z" fill="#e9f0f2"/>
</svg>
