<svg width="75" height="75" viewBox="0 0 75 75" fill="none" xmlns="http://www.w3.org/2000/svg">
<path d="M25.7812 8.20312C25.7812 6.25488 27.3486 4.6875 29.2969 4.6875H31.6406C33.5889 4.6875 35.1562 6.25488 35.1562 8.20312C35.1562 10.1514 33.5889 11.7188 31.6406 11.7188H29.2969C27.3486 11.7188 25.7812 10.1514 25.7812 8.20312ZM29.2969 15.2344H31.6406C33.5889 15.2344 35.1562 16.8018 35.1562 18.75C35.1562 20.6982 33.5889 22.2656 31.6406 22.2656H29.2969C27.3486 22.2656 25.7812 20.6982 25.7812 18.75C25.7812 16.8018 27.3486 15.2344 29.2969 15.2344ZM8.20312 25.7812H10.5469C12.4951 25.7812 14.0625 27.3486 14.0625 29.2969C14.0625 31.2451 12.4951 32.8125 10.5469 32.8125H8.20312C6.25488 32.8125 4.6875 31.2451 4.6875 29.2969C4.6875 27.3486 6.25488 25.7812 8.20312 25.7812ZM0 41.5137C0 39.3018 1.80176 37.5 4.01367 37.5H70.9863C73.1982 37.5 75 39.3018 75 41.5137C75 51.8408 68.4961 60.6592 59.3701 64.0869L59.1064 66.2109C58.8135 68.5547 56.8213 70.3125 54.4482 70.3125H20.5371C18.1787 70.3125 16.1719 68.5547 15.8789 66.2109L15.6152 64.1016C6.50391 60.6592 0 51.8408 0 41.5137ZM32.8125 29.2969C32.8125 27.3486 34.3799 25.7812 36.3281 25.7812H38.6719C40.6201 25.7812 42.1875 27.3486 42.1875 29.2969C42.1875 31.2451 40.6201 32.8125 38.6719 32.8125H36.3281C34.3799 32.8125 32.8125 31.2451 32.8125 29.2969ZM18.75 29.2969C18.75 27.3486 20.3174 25.7812 22.2656 25.7812H24.6094C26.5576 25.7812 28.125 27.3486 28.125 29.2969C28.125 31.2451 26.5576 32.8125 24.6094 32.8125H22.2656C20.3174 32.8125 18.75 31.2451 18.75 29.2969ZM15.2344 15.2344H17.5781C19.5264 15.2344 21.0938 16.8018 21.0938 18.75C21.0938 20.6982 19.5264 22.2656 17.5781 22.2656H15.2344C13.2861 22.2656 11.7188 20.6982 11.7188 18.75C11.7188 16.8018 13.2861 15.2344 15.2344 15.2344ZM46.875 29.2969C46.875 27.3486 48.4424 25.7812 50.3906 25.7812H52.7344C54.6826 25.7812 56.25 27.3486 56.25 29.2969C56.25 31.2451 54.6826 32.8125 52.7344 32.8125H50.3906C48.4424 32.8125 46.875 31.2451 46.875 29.2969ZM43.3594 15.2344H45.7031C47.6514 15.2344 49.2188 16.8018 49.2188 18.75C49.2188 20.6982 47.6514 22.2656 45.7031 22.2656H43.3594C41.4111 22.2656 39.8438 20.6982 39.8438 18.75C39.8438 16.8018 41.4111 15.2344 43.3594 15.2344ZM60.9375 29.2969C60.9375 27.3486 62.5049 25.7812 64.4531 25.7812H66.7969C68.7451 25.7812 70.3125 27.3486 70.3125 29.2969C70.3125 31.2451 68.7451 32.8125 66.7969 32.8125H64.4531C62.5049 32.8125 60.9375 31.2451 60.9375 29.2969ZM57.4219 15.2344H59.7656C61.7139 15.2344 63.2812 16.8018 63.2812 18.75C63.2812 20.6982 61.7139 22.2656 59.7656 22.2656H57.4219C55.4736 22.2656 53.9062 20.6982 53.9062 18.75C53.9062 16.8018 55.4736 15.2344 57.4219 15.2344ZM43.3594 4.6875H45.7031C47.6514 4.6875 49.2188 6.25488 49.2188 8.20312C49.2188 10.1514 47.6514 11.7188 45.7031 11.7188H43.3594C41.4111 11.7188 39.8438 10.1514 39.8438 8.20312C39.8438 6.25488 41.4111 4.6875 43.3594 4.6875Z" fill="#e9f0f2"/>
</svg>
