<svg width="75" height="75" viewBox="0 0 75 75" fill="none" xmlns="http://www.w3.org/2000/svg">
<path d="M65.625 31.25C65.5678 29.3367 65.0206 27.47 64.0357 25.8286C63.0509 24.1872 61.6613 22.8259 60 21.875C59.6016 19.1529 58.2355 16.6657 56.152 14.8692C54.0685 13.0727 51.4073 12.0873 48.6562 12.0937C47.6013 12.0919 46.5507 12.2285 45.5312 12.5C43.3803 10.4464 40.5207 9.30058 37.5469 9.30058C34.573 9.30058 31.7135 10.4464 29.5625 12.5C28.5431 12.2285 27.4924 12.0919 26.4375 12.0937C23.6757 12.0722 20.9994 13.0507 18.9029 14.8486C16.8063 16.6465 15.4311 19.1422 15.0312 21.875C13.3641 22.822 11.9683 24.1816 10.9779 25.8233C9.98737 27.4649 9.43544 29.3336 9.375 31.25C8.5462 31.25 7.75134 31.5792 7.16529 32.1653C6.57924 32.7513 6.25 33.5462 6.25 34.375C6.25014 39.8604 7.69415 45.2491 10.4369 49.9995C13.1797 54.75 17.1245 58.6948 21.875 61.4375V65.625C21.875 66.4538 22.2042 67.2487 22.7903 67.8347C23.3763 68.4208 24.1712 68.75 25 68.75H50C50.8288 68.75 51.6237 68.4208 52.2097 67.8347C52.7958 67.2487 53.125 66.4538 53.125 65.625V61.4375C57.8755 58.6948 61.8203 54.75 64.5631 49.9995C67.3058 45.2491 68.7499 39.8604 68.75 34.375C68.75 33.5462 68.4208 32.7513 67.8347 32.1653C67.2487 31.5792 66.4538 31.25 65.625 31.25ZM15.625 31.25C15.7044 30.2627 16.077 29.3216 16.6951 28.5477C17.3132 27.7737 18.1485 27.2021 19.0938 26.9062L21.6875 26.0938L21.1875 23.4375C21.1957 22.7645 21.3363 22.0996 21.6014 21.4809C21.8666 20.8623 22.2509 20.3019 22.7327 19.8318C23.2144 19.3617 23.784 18.9911 24.4089 18.7411C25.0339 18.4911 25.702 18.3667 26.375 18.375C27.2775 18.3698 28.1677 18.5843 28.9688 19L31.5 20.4062L33.0625 18C33.5512 17.2717 34.2116 16.6748 34.9855 16.2621C35.7594 15.8494 36.6229 15.6335 37.5 15.6335C38.3771 15.6335 39.2406 15.8494 40.0145 16.2621C40.7884 16.6748 41.4488 17.2717 41.9375 18L43.5 20.4062L46.0312 19C46.8323 18.5843 47.7225 18.3698 48.625 18.375C49.9767 18.358 51.2809 18.8725 52.257 19.8076C53.2331 20.7428 53.8029 22.0239 53.8437 23.375L53.3437 26.0312L55.9062 26.9062C56.8515 27.2021 57.6868 27.7737 58.3049 28.5477C58.923 29.3216 59.2956 30.2627 59.375 31.25H15.625Z" fill="#19231C"/>
</svg>
