<svg width="75" height="75" viewBox="0 0 75 75" fill="none" xmlns="http://www.w3.org/2000/svg">
<g clip-path="url(#clip0_2_76)">
<path d="M28.125 12.5C29.7826 12.5 31.3723 13.1585 32.5444 14.3306C33.7165 15.5027 34.375 17.0924 34.375 18.75C34.375 20.4076 33.7165 21.9973 32.5444 23.1694C31.3723 24.3415 29.7826 25 28.125 25C26.4674 25 24.8777 24.3415 23.7056 23.1694C22.5335 21.9973 21.875 20.4076 21.875 18.75C21.875 17.0924 22.5335 15.5027 23.7056 14.3306C24.8777 13.1585 26.4674 12.5 28.125 12.5ZM34.375 37.5C34.375 35.8424 33.7165 34.2527 32.5444 33.0806C31.3723 31.9085 29.7826 31.25 28.125 31.25C26.4674 31.25 24.8777 31.9085 23.7056 33.0806C22.5335 34.2527 21.875 35.8424 21.875 37.5C21.875 39.1576 22.5335 40.7473 23.7056 41.9194C24.8777 43.0915 26.4674 43.75 28.125 43.75C29.7826 43.75 31.3723 43.0915 32.5444 41.9194C33.7165 40.7473 34.375 39.1576 34.375 37.5ZM34.375 56.25C34.375 54.5924 33.7165 53.0027 32.5444 51.8306C31.3723 50.6585 29.7826 50 28.125 50C26.4674 50 24.8777 50.6585 23.7056 51.8306C22.5335 53.0027 21.875 54.5924 21.875 56.25C21.875 57.9076 22.5335 59.4973 23.7056 60.6694C24.8777 61.8415 26.4674 62.5 28.125 62.5C29.7826 62.5 31.3723 61.8415 32.5444 60.6694C33.7165 59.4973 34.375 57.9076 34.375 56.25ZM53.125 37.5C53.125 35.8424 52.4665 34.2527 51.2944 33.0806C50.1223 31.9085 48.5326 31.25 46.875 31.25C45.2174 31.25 43.6277 31.9085 42.4556 33.0806C41.2835 34.2527 40.625 35.8424 40.625 37.5C40.625 39.1576 41.2835 40.7473 42.4556 41.9194C43.6277 43.0915 45.2174 43.75 46.875 43.75C48.5326 43.75 50.1223 43.0915 51.2944 41.9194C52.4665 40.7473 53.125 39.1576 53.125 37.5ZM46.875 50C48.5326 50 50.1223 50.6585 51.2944 51.8306C52.4665 53.0027 53.125 54.5924 53.125 56.25C53.125 57.9076 52.4665 59.4973 51.2944 60.6694C50.1223 61.8415 48.5326 62.5 46.875 62.5C45.2174 62.5 43.6277 61.8415 42.4556 60.6694C41.2835 59.4973 40.625 57.9076 40.625 56.25C40.625 54.5924 41.2835 53.0027 42.4556 51.8306C43.6277 50.6585 45.2174 50 46.875 50ZM53.125 18.75C53.125 17.0924 52.4665 15.5027 51.2944 14.3306C50.1223 13.1585 48.5326 12.5 46.875 12.5C45.2174 12.5 43.6277 13.1585 42.4556 14.3306C41.2835 15.5027 40.625 17.0924 40.625 18.75C40.625 20.4076 41.2835 21.9973 42.4556 23.1694C43.6277 24.3415 45.2174 25 46.875 25C48.5326 25 50.1223 24.3415 51.2944 23.1694C52.4665 21.9973 53.125 20.4076 53.125 18.75Z" fill="#19231C"/>
</g>
<defs>
<clipPath id="clip0_2_76">
<rect width="75" height="75" fill="white"/>
</clipPath>
</defs>
</svg>
