<svg width="75" height="75" viewBox="0 0 75 75" fill="none" xmlns="http://www.w3.org/2000/svg">
<path fill-rule="evenodd" clip-rule="evenodd" d="M64.2094 11.475C63.6234 10.8892 62.8286 10.56 62 10.56C61.1714 10.56 60.3766 10.8892 59.7906 11.475L43.0281 28.2375H6.25V34.4875H6.275C6.95625 51.1438 20.675 64.4406 37.5 64.4406C54.325 64.4406 68.0438 51.1438 68.725 34.4875H68.75V28.2375H51.8656L64.2094 15.8938C64.7952 15.3077 65.1243 14.513 65.1243 13.6844C65.1243 12.8557 64.7952 12.061 64.2094 11.475ZM44.3031 34.4875H62.4687C62.1481 40.8936 59.3776 46.9313 54.7302 51.352C50.0828 55.7726 43.9141 58.2379 37.5 58.2379C31.0859 58.2379 24.9172 55.7726 20.2698 51.352C15.6224 46.9313 12.8519 40.8936 12.5313 34.4875H44.3H44.3031Z" fill="#19231C"/>
</svg>
