<svg width="75" height="75" viewBox="0 0 75 75" fill="none" xmlns="http://www.w3.org/2000/svg">
<path d="M18.75 45C22.8921 45 26.25 41.6421 26.25 37.5C26.25 33.3579 22.8921 30 18.75 30C14.6079 30 11.25 33.3579 11.25 37.5C11.25 41.6421 14.6079 45 18.75 45Z" fill="#19231C"/>
<path d="M37.5 45C41.6421 45 45 41.6421 45 37.5C45 33.3579 41.6421 30 37.5 30C33.3579 30 30 33.3579 30 37.5C30 41.6421 33.3579 45 37.5 45Z" fill="#19231C"/>
<path d="M56.25 45C60.3921 45 63.75 41.6421 63.75 37.5C63.75 33.3579 60.3921 30 56.25 30C52.1079 30 48.75 33.3579 48.75 37.5C48.75 41.6421 52.1079 45 56.25 45Z" fill="#19231C"/>
</svg>
