<svg width="75" height="75" viewBox="0 0 75 75" fill="none" xmlns="http://www.w3.org/2000/svg">
<path fill-rule="evenodd" clip-rule="evenodd" d="M7.03125 37.5C7.03125 35.2208 7.93666 33.0349 9.5483 31.4233C11.1599 29.8117 13.3458 28.9062 15.625 28.9062C17.9042 28.9062 20.0901 29.8117 21.7017 31.4233C23.3133 33.0349 24.2188 35.2208 24.2188 37.5C24.2188 39.7792 23.3133 41.9651 21.7017 43.5767C20.0901 45.1883 17.9042 46.0938 15.625 46.0938C13.3458 46.0938 11.1599 45.1883 9.5483 43.5767C7.93666 41.9651 7.03125 39.7792 7.03125 37.5ZM15.625 33.5938C14.589 33.5938 13.5954 34.0053 12.8629 34.7379C12.1303 35.4704 11.7188 36.464 11.7188 37.5C11.7188 38.536 12.1303 39.5296 12.8629 40.2621C13.5954 40.9947 14.589 41.4062 15.625 41.4062C16.661 41.4062 17.6546 40.9947 18.3871 40.2621C19.1197 39.5296 19.5312 38.536 19.5312 37.5C19.5312 36.464 19.1197 35.4704 18.3871 34.7379C17.6546 34.0053 16.661 33.5938 15.625 33.5938ZM28.9062 37.5C28.9063 35.2208 29.8117 33.0349 31.4233 31.4233C33.0349 29.8117 35.2208 28.9062 37.5 28.9062C39.7792 28.9062 41.9651 29.8117 43.5767 31.4233C45.1883 33.0349 46.0938 35.2208 46.0938 37.5C46.0938 39.7792 45.1883 41.9651 43.5767 43.5767C41.9651 45.1883 39.7792 46.0938 37.5 46.0938C35.2208 46.0938 33.0349 45.1883 31.4233 43.5767C29.8117 41.9651 28.9062 39.7792 28.9062 37.5ZM37.5 33.5938C36.464 33.5938 35.4704 34.0053 34.7379 34.7379C34.0053 35.4704 33.5938 36.464 33.5938 37.5C33.5938 38.536 34.0053 39.5296 34.7379 40.2621C35.4704 40.9947 36.464 41.4062 37.5 41.4062C38.536 41.4062 39.5296 40.9947 40.2621 40.2621C40.9947 39.5296 41.4062 38.536 41.4062 37.5C41.4062 36.464 40.9947 35.4704 40.2621 34.7379C39.5296 34.0053 38.536 33.5938 37.5 33.5938ZM59.375 28.9062C57.0958 28.9063 54.9099 29.8117 53.2983 31.4233C51.6867 33.0349 50.7812 35.2208 50.7812 37.5C50.7812 39.7792 51.6867 41.9651 53.2983 43.5767C54.9099 45.1883 57.0958 46.0938 59.375 46.0938C61.6542 46.0938 63.8401 45.1883 65.4517 43.5767C67.0633 41.9651 67.9688 39.7792 67.9688 37.5C67.9688 35.2208 67.0633 33.0349 65.4517 31.4233C63.8401 29.8117 61.6542 28.9062 59.375 28.9062ZM55.4688 37.5C55.4687 36.987 55.5698 36.4791 55.7661 36.0051C55.9624 35.5312 56.2501 35.1006 56.6129 34.7379C56.9756 34.3751 57.4062 34.0874 57.8801 33.8911C58.3541 33.6948 58.862 33.5938 59.375 33.5938C59.888 33.5938 60.3959 33.6948 60.8699 33.8911C61.3438 34.0874 61.7744 34.3751 62.1371 34.7379C62.4999 35.1006 62.7876 35.5312 62.9839 36.0051C63.1802 36.4791 63.2813 36.987 63.2812 37.5C63.2812 38.536 62.8697 39.5296 62.1371 40.2621C61.4046 40.9947 60.411 41.4062 59.375 41.4062C58.339 41.4062 57.3454 40.9947 56.6129 40.2621C55.8803 39.5296 55.4688 38.536 55.4688 37.5Z" fill="#19231C"/>
</svg>
