<svg width="75" height="75" viewBox="0 0 75 75" fill="none" xmlns="http://www.w3.org/2000/svg">
<path d="M37.5 63.75C41.6421 63.75 45 60.3921 45 56.25C45 52.1079 41.6421 48.75 37.5 48.75C33.3579 48.75 30 52.1079 30 56.25C30 60.3921 33.3579 63.75 37.5 63.75Z" fill="#19231C"/>
<path d="M37.5 45C41.6421 45 45 41.6421 45 37.5C45 33.3579 41.6421 30 37.5 30C33.3579 30 30 33.3579 30 37.5C30 41.6421 33.3579 45 37.5 45Z" fill="#19231C"/>
<path d="M37.5 26.25C41.6421 26.25 45 22.8921 45 18.75C45 14.6079 41.6421 11.25 37.5 11.25C33.3579 11.25 30 14.6079 30 18.75C30 22.8921 33.3579 26.25 37.5 26.25Z" fill="#19231C"/>
</svg>
