<svg width="75" height="75" viewBox="0 0 75 75" fill="none" xmlns="http://www.w3.org/2000/svg">
<path d="M37.5 50C40.9375 50 43.75 52.8125 43.75 56.25C43.75 59.6875 40.9375 62.5 37.5 62.5C34.0625 62.5 31.25 59.6875 31.25 56.25C31.25 52.8125 34.0625 50 37.5 50ZM46.875 31.25C50.3125 31.25 53.125 34.0625 53.125 37.5C53.125 40.9375 50.3125 43.75 46.875 43.75C43.4375 43.75 40.625 40.9375 40.625 37.5C40.625 34.0625 43.4375 31.25 46.875 31.25ZM18.75 50C22.1875 50 25 52.8125 25 56.25C25 59.6875 22.1875 62.5 18.75 62.5C15.3125 62.5 12.5 59.6875 12.5 56.25C12.5 52.8125 15.3125 50 18.75 50ZM28.125 31.25C31.5625 31.25 34.375 34.0625 34.375 37.5C34.375 40.9375 31.5625 43.75 28.125 43.75C24.6875 43.75 21.875 40.9375 21.875 37.5C21.875 34.0625 24.6875 31.25 28.125 31.25ZM37.5 12.5C40.9375 12.5 43.75 15.3125 43.75 18.75C43.75 22.1875 40.9375 25 37.5 25C34.0625 25 31.25 22.1875 31.25 18.75C31.25 15.3125 34.0625 12.5 37.5 12.5ZM56.25 50C59.6875 50 62.5 52.8125 62.5 56.25C62.5 59.6875 59.6875 62.5 56.25 62.5C52.8125 62.5 50 59.6875 50 56.25C50 52.8125 52.8125 50 56.25 50Z" fill="#19231C"/>
</svg>
