<svg width="75" height="75" viewBox="0 0 75 75" fill="none" xmlns="http://www.w3.org/2000/svg">
<path d="M37.5 5.85938C31.2421 5.85938 25.1247 7.71507 19.9214 11.1918C14.7182 14.6685 10.6627 19.6101 8.26789 25.3917C5.87308 31.1732 5.24649 37.5351 6.46735 43.6728C7.68822 49.8105 10.7017 55.4483 15.1267 59.8733C19.5517 64.2983 25.1896 67.3118 31.3272 68.5327C37.4649 69.7535 43.8268 69.1269 49.6084 66.7321C55.3899 64.3373 60.3315 60.2819 63.8082 55.0786C67.2849 49.8753 69.1406 43.7579 69.1406 37.5C69.1313 29.1112 65.7948 21.0687 59.863 15.137C53.9313 9.20523 45.8888 5.86868 37.5 5.85938ZM37.5 62.1094C32.6327 62.1094 27.8748 60.6661 23.8278 57.9619C19.7808 55.2578 16.6265 51.4144 14.7639 46.9176C12.9013 42.4208 12.4139 37.4727 13.3635 32.6989C14.3131 27.9252 16.6569 23.5402 20.0986 20.0985C23.5402 16.6569 27.9252 14.313 32.699 13.3635C37.4727 12.4139 42.4208 12.9013 46.9176 14.7639C51.4144 16.6265 55.2578 19.7808 57.962 23.8278C60.6661 27.8748 62.1094 32.6327 62.1094 37.5C62.1024 44.0247 59.5074 50.2801 54.8938 54.8937C50.2801 59.5074 44.0247 62.1024 37.5 62.1094ZM32.8125 37.5C32.8125 38.4271 32.5376 39.3334 32.0225 40.1042C31.5075 40.8751 30.7754 41.4759 29.9188 41.8307C29.0623 42.1855 28.1198 42.2783 27.2105 42.0974C26.3012 41.9166 25.466 41.4701 24.8105 40.8146C24.1549 40.159 23.7085 39.3238 23.5276 38.4145C23.3467 37.5052 23.4395 36.5627 23.7943 35.7062C24.1491 34.8496 24.7499 34.1176 25.5208 33.6025C26.2916 33.0874 27.1979 32.8125 28.125 32.8125C29.3682 32.8125 30.5605 33.3064 31.4396 34.1854C32.3187 35.0645 32.8125 36.2568 32.8125 37.5ZM51.5625 37.5C51.5625 38.4271 51.2876 39.3334 50.7725 40.1042C50.2575 40.8751 49.5254 41.4759 48.6688 41.8307C47.8123 42.1855 46.8698 42.2783 45.9605 42.0974C45.0512 41.9166 44.216 41.4701 43.5605 40.8146C42.9049 40.159 42.4585 39.3238 42.2776 38.4145C42.0967 37.5052 42.1895 36.5627 42.5443 35.7062C42.8991 34.8496 43.4999 34.1176 44.2708 33.6025C45.0416 33.0874 45.9479 32.8125 46.875 32.8125C48.1182 32.8125 49.3105 33.3064 50.1896 34.1854C51.0687 35.0645 51.5625 36.2568 51.5625 37.5Z" fill="#e9f0f2"/>
</svg>
