<svg width="90" height="90" viewBox="0 0 90 90" fill="none" xmlns="http://www.w3.org/2000/svg">
<path d="M90 45.0143C90.0048 37.5252 88.1391 30.1534 84.5723 23.5675C81.0056 16.9817 75.8505 11.3903 69.5747 7.30042C63.2989 3.21057 56.1011 0.751733 48.634 0.14694C41.167 -0.457854 33.667 0.810536 26.8145 3.83706C19.962 6.86358 13.9737 11.5525 9.3929 17.4784C4.81208 23.4043 1.78366 30.3797 0.582346 37.7719C-0.618967 45.1641 0.0448399 52.7392 2.51356 59.81C4.98227 66.8808 9.17778 73.2236 14.7195 78.2631C14.8291 78.3931 14.9567 78.5069 15.0984 78.6009C23.3273 85.9426 33.9712 90.0002 45.0007 90C56.0302 89.9998 66.6739 85.942 74.9026 78.6C75.0436 78.5064 75.1706 78.3932 75.2797 78.2637C79.918 74.055 83.6239 68.9224 86.1591 63.1961C88.6942 57.4697 90.0026 51.2764 90 45.0143ZM3.6 45.0143C3.59527 38.2102 5.26871 31.5098 8.47218 25.5064C11.6756 19.503 16.3103 14.3818 21.9659 10.5961C27.6214 6.81038 34.1234 4.47702 40.8962 3.80256C47.669 3.1281 54.5037 4.13335 60.7952 6.72931C67.0867 9.32528 72.6408 13.4319 76.966 18.6855C81.2912 23.9392 84.254 30.1779 85.5921 36.8493C86.9301 43.5206 86.6022 50.4189 84.6373 56.9334C82.6724 63.4478 79.1312 69.3775 74.3271 74.1974C69.859 66.7173 62.6901 61.2361 54.2986 58.8841C58.1987 56.8102 61.293 53.4919 63.0893 49.4574C64.8855 45.4228 65.2805 40.9036 64.2114 36.6187C63.1424 32.3338 60.6706 28.5294 57.1894 25.8108C53.7082 23.0921 49.4175 21.6152 45 21.6152C40.5824 21.6152 36.2918 23.0921 32.8106 25.8108C29.3294 28.5294 26.8576 32.3338 25.7886 36.6187C24.7195 40.9036 25.1145 45.4228 26.9107 49.4574C28.707 53.4919 31.8013 56.8102 35.7014 58.8841C27.31 61.2362 20.1411 66.7172 15.6729 74.1972C11.842 70.3638 8.80411 65.8136 6.73262 60.8063C4.66114 55.799 3.59666 50.4329 3.6 45.0143ZM45 57.6103C41.7959 57.6103 38.6638 56.6605 35.9998 54.881C33.3357 53.1015 31.2593 50.5722 30.0331 47.613C28.807 44.6537 28.4862 41.3975 29.1113 38.256C29.7364 35.1145 31.2793 32.2289 33.5449 29.964C35.8105 27.6991 38.697 26.1567 41.8395 25.5318C44.982 24.9069 48.2393 25.2276 51.1995 26.4534C54.1596 27.6791 56.6897 29.7549 58.4698 32.4181C60.2499 35.0813 61.2 38.2124 61.2 41.4155C61.1952 45.7091 59.4868 49.8255 56.4498 52.8616C53.4127 55.8977 49.295 57.6055 45 57.6103ZM18.3891 76.6919C21.0607 71.9907 24.9307 68.0813 29.6051 65.3616C34.2796 62.6419 39.5915 61.2091 44.9999 61.2092C50.4084 61.2092 55.7203 62.642 60.3948 65.3617C65.0692 68.0815 68.9391 71.9909 71.6106 76.6921C64.1622 82.9625 54.7375 86.4012 44.9998 86.4011C35.2622 86.4011 25.8375 82.9624 18.3891 76.6919Z" fill="black"/>
</svg>
