<svg width="75" height="75" viewBox="0 0 75 75" fill="none" xmlns="http://www.w3.org/2000/svg">
<path fill-rule="evenodd" clip-rule="evenodd" d="M37.5 3.125C18.5156 3.125 3.125 18.5156 3.125 37.5C3.125 56.4844 18.5156 71.875 37.5 71.875C56.4844 71.875 71.875 56.4844 71.875 37.5C71.875 18.5156 56.4844 3.125 37.5 3.125ZM49.0844 30.3344C49.6536 29.745 49.9686 28.9556 49.9615 28.1362C49.9544 27.3169 49.6257 26.5331 49.0463 25.9537C48.4669 25.3743 47.6831 25.0456 46.8638 25.0385C46.0444 25.0314 45.255 25.3464 44.6656 25.9156L37.5 33.0813L30.3344 25.9156C30.0461 25.6172 29.7013 25.3791 29.32 25.2153C28.9388 25.0515 28.5287 24.9653 28.1138 24.9617C27.6988 24.9581 27.2873 25.0372 26.9033 25.1943C26.5192 25.3514 26.1703 25.5835 25.8769 25.8769C25.5835 26.1703 25.3514 26.5192 25.1943 26.9033C25.0372 27.2873 24.9581 27.6988 24.9617 28.1138C24.9653 28.5287 25.0515 28.9388 25.2153 29.32C25.3791 29.7013 25.6172 30.0461 25.9156 30.3344L33.0813 37.5L25.9156 44.6656C25.6172 44.9539 25.3791 45.2987 25.2153 45.68C25.0515 46.0612 24.9653 46.4713 24.9617 46.8862C24.9581 47.3012 25.0372 47.7127 25.1943 48.0967C25.3514 48.4808 25.5835 48.8297 25.8769 49.1231C26.1703 49.4165 26.5192 49.6486 26.9033 49.8057C27.2873 49.9628 27.6988 50.0419 28.1138 50.0383C28.5287 50.0347 28.9388 49.9485 29.32 49.7847C29.7013 49.6209 30.0461 49.3828 30.3344 49.0844L37.5 41.9187L44.6656 49.0844C45.255 49.6536 46.0444 49.9686 46.8638 49.9615C47.6831 49.9544 48.4669 49.6257 49.0463 49.0463C49.6257 48.4669 49.9544 47.6831 49.9615 46.8638C49.9686 46.0444 49.6536 45.255 49.0844 44.6656L41.9187 37.5L49.0844 30.3344Z" fill="#e9f0f2"/>
</svg>
