<?xml version="1.0" encoding="UTF-8" standalone="no"?><!DOCTYPE svg PUBLIC "-//W3C//DTD SVG 1.1//EN" "http://www.w3.org/Graphics/SVG/1.1/DTD/svg11.dtd"><svg width="100%" height="100%" viewBox="0 0 222 317" version="1.1" xmlns="http://www.w3.org/2000/svg" xmlns:xlink="http://www.w3.org/1999/xlink" xml:space="preserve" xmlns:serif="http://www.serif.com/" style="fill-rule:evenodd;clip-rule:evenodd;stroke-linejoin:round;stroke-miterlimit:2;"><rect id="Logo" x="-131.606" y="-74.87" width="500" height="500" style="fill:none;"/><rect x="0" y="96.742" width="39.239" height="220.012" style="fill:#e9f0f2;"/><path d="M53.878,165.714l55.343,0c25.87,0 44.24,-5.877 55.111,-17.631c10.87,-11.754 16.306,-28.293 16.306,-49.618c-0,-0.577 -0.005,-1.152 -0.014,-1.723l41.295,0c-0,0.071 -0,0.141 -0,0.212c-0,31.399 -8.188,57.972 -24.562,79.716c-16.375,21.745 -45.96,32.618 -88.755,32.618l-54.724,-0l0,-43.574Z" style="fill:#e9f0f2;"/><path d="M0,78.742l0,-78.742l110.93,0c19.525,0 34.436,1.175 44.734,3.526c14.443,3.023 26.546,8.774 36.308,17.253c9.762,8.48 17.619,20.36 23.57,35.64c2.771,7.113 4.896,14.554 6.377,22.323l-42.28,-0c-1.279,-3.556 -2.818,-6.925 -4.618,-10.107c-6.218,-10.999 -14.409,-18.261 -24.573,-21.787c-6.553,-2.183 -18.655,-3.275 -36.308,-3.275l-75.224,0l-0,35.169l-38.916,-0Z" style="fill:#e9f0f2;fill-rule:nonzero;"/></svg>